<mxfile host="Electron" modified="2024-06-03T17:39:32.312Z" agent="Mozilla/5.0 (X11; Linux x86_64) AppleWebKit/537.36 (KHTML, like Gecko) draw.io/24.4.8 Chrome/124.0.6367.207 Electron/30.0.6 Safari/537.36" etag="fkvW7orWUo5PiZS8HI2Y" version="24.4.8" type="device">
  <diagram name="Page-1" id="0gJbcg0XPNFQ-sTSEnto">
    <mxGraphModel dx="1419" dy="753" grid="1" gridSize="10" guides="1" tooltips="1" connect="1" arrows="1" fold="1" page="1" pageScale="1" pageWidth="850" pageHeight="1100" math="0" shadow="0">
      <root>
        <mxCell id="0" />
        <mxCell id="1" parent="0" />
        <mxCell id="kCcKPWVAT5D1t5MUIoHH-27" value="" style="rounded=0;whiteSpace=wrap;html=1;fillColor=#A6C4E0;strokeColor=#314354;dashed=1;" parent="1" vertex="1">
          <mxGeometry x="683" y="1250" width="143" height="219" as="geometry" />
        </mxCell>
        <mxCell id="kCcKPWVAT5D1t5MUIoHH-42" value="" style="rounded=0;whiteSpace=wrap;html=1;fillColor=#647687;strokeColor=#314354;dashed=1;fontColor=#ffffff;" parent="1" vertex="1">
          <mxGeometry x="420" y="1250" width="263" height="220" as="geometry" />
        </mxCell>
        <mxCell id="iadHfbyGvCmugBZnds3B-61" value="" style="rounded=0;whiteSpace=wrap;html=1;fillColor=#97B3CC;strokeColor=#314354;dashed=1;gradientColor=none;gradientDirection=south;" parent="1" vertex="1">
          <mxGeometry x="1174.25" y="82" width="263" height="200" as="geometry" />
        </mxCell>
        <mxCell id="iadHfbyGvCmugBZnds3B-51" value="(Re)start ICE Agent" style="edgeStyle=orthogonalEdgeStyle;rounded=0;orthogonalLoop=1;jettySize=auto;html=1;dashed=1;dashPattern=12 12;" parent="1" source="iadHfbyGvCmugBZnds3B-35" target="iadHfbyGvCmugBZnds3B-39" edge="1">
          <mxGeometry relative="1" as="geometry">
            <Array as="points">
              <mxPoint x="890" y="630" />
            </Array>
          </mxGeometry>
        </mxCell>
        <mxCell id="iadHfbyGvCmugBZnds3B-53" value="Create&lt;div&gt;Synchronization&lt;/div&gt;&lt;div&gt;packet&lt;/div&gt;" style="edgeStyle=orthogonalEdgeStyle;rounded=0;orthogonalLoop=1;jettySize=auto;html=1;" parent="1" source="iadHfbyGvCmugBZnds3B-35" target="iadHfbyGvCmugBZnds3B-31" edge="1">
          <mxGeometry relative="1" as="geometry">
            <Array as="points">
              <mxPoint x="962" y="370" />
              <mxPoint x="659" y="370" />
            </Array>
            <mxPoint as="offset" />
          </mxGeometry>
        </mxCell>
        <mxCell id="iadHfbyGvCmugBZnds3B-35" value="" style="rounded=0;whiteSpace=wrap;html=1;fillColor=#A6C4E0;strokeColor=#314354;dashed=1;" parent="1" vertex="1">
          <mxGeometry x="830" y="400" width="263" height="200" as="geometry" />
        </mxCell>
        <mxCell id="iadHfbyGvCmugBZnds3B-52" value="Synchronize" style="edgeStyle=orthogonalEdgeStyle;rounded=0;orthogonalLoop=1;jettySize=auto;html=1;" parent="1" source="iadHfbyGvCmugBZnds3B-39" target="iadHfbyGvCmugBZnds3B-35" edge="1">
          <mxGeometry relative="1" as="geometry">
            <Array as="points">
              <mxPoint x="1070" y="790" />
            </Array>
          </mxGeometry>
        </mxCell>
        <mxCell id="iadHfbyGvCmugBZnds3B-39" value="" style="rounded=0;whiteSpace=wrap;html=1;fillColor=#647687;strokeColor=#314354;dashed=1;fontColor=#ffffff;" parent="1" vertex="1">
          <mxGeometry x="527" y="610" width="263" height="200" as="geometry" />
        </mxCell>
        <mxCell id="iadHfbyGvCmugBZnds3B-31" value="" style="rounded=0;whiteSpace=wrap;html=1;fillColor=#E6E6E6;fontColor=#333333;strokeColor=#314354;dashed=1;" parent="1" vertex="1">
          <mxGeometry x="527" y="400" width="263" height="200" as="geometry" />
        </mxCell>
        <mxCell id="5U8ytU4bZrLR5_oLVIPA-13" value="&lt;div&gt;Incoming&lt;/div&gt;&lt;div&gt;Packets&lt;br&gt;&lt;/div&gt;" style="edgeStyle=orthogonalEdgeStyle;rounded=0;orthogonalLoop=1;jettySize=auto;html=1;startArrow=classic;startFill=1;fontStyle=1;fontSize=12;verticalAlign=bottom;endArrow=none;endFill=0;labelPosition=center;verticalLabelPosition=top;align=center;" parent="1" source="5U8ytU4bZrLR5_oLVIPA-4" edge="1">
          <mxGeometry x="0.4867" relative="1" as="geometry">
            <mxPoint x="414" y="190.5" as="targetPoint" />
            <mxPoint as="offset" />
          </mxGeometry>
        </mxCell>
        <mxCell id="5U8ytU4bZrLR5_oLVIPA-64" style="edgeStyle=orthogonalEdgeStyle;rounded=0;orthogonalLoop=1;jettySize=auto;html=1;" parent="1" source="5U8ytU4bZrLR5_oLVIPA-4" target="5U8ytU4bZrLR5_oLVIPA-47" edge="1">
          <mxGeometry relative="1" as="geometry">
            <Array as="points">
              <mxPoint x="340" y="300" />
              <mxPoint x="340" y="300" />
            </Array>
          </mxGeometry>
        </mxCell>
        <mxCell id="5U8ytU4bZrLR5_oLVIPA-4" value="Handle&lt;br&gt;&lt;div&gt;Interface(s)&lt;/div&gt;&lt;div&gt;(read, write)&lt;br&gt;&lt;/div&gt;" style="rounded=0;whiteSpace=wrap;html=1;fillColor=#f5f5f5;fontColor=#333333;strokeColor=#666666;" parent="1" vertex="1">
          <mxGeometry x="240" y="160.5" width="120" height="60" as="geometry" />
        </mxCell>
        <mxCell id="5U8ytU4bZrLR5_oLVIPA-20" value="1" style="ellipse;whiteSpace=wrap;html=1;aspect=fixed;fontSize=12;fontStyle=1;fillColor=#ffe6cc;strokeColor=#d79b00;" parent="1" vertex="1">
          <mxGeometry x="310" y="126.5" width="30" height="30" as="geometry" />
        </mxCell>
        <mxCell id="5U8ytU4bZrLR5_oLVIPA-21" value="QUICHEPERF" style="text;html=1;align=center;verticalAlign=middle;resizable=0;points=[];autosize=1;strokeColor=#666666;fillColor=#f5f5f5;fontStyle=1;fontColor=#333333;" parent="1" vertex="1">
          <mxGeometry x="5" y="80" width="100" height="30" as="geometry" />
        </mxCell>
        <mxCell id="5U8ytU4bZrLR5_oLVIPA-26" value="STUN" style="edgeStyle=orthogonalEdgeStyle;rounded=0;orthogonalLoop=1;jettySize=auto;html=1;verticalAlign=middle;horizontal=1;fontSize=12;" parent="1" source="5U8ytU4bZrLR5_oLVIPA-38" target="5U8ytU4bZrLR5_oLVIPA-24" edge="1">
          <mxGeometry x="0.322" relative="1" as="geometry">
            <mxPoint x="89.99999999999977" y="207" as="targetPoint" />
            <Array as="points">
              <mxPoint x="65" y="260" />
            </Array>
            <mxPoint as="offset" />
          </mxGeometry>
        </mxCell>
        <mxCell id="5U8ytU4bZrLR5_oLVIPA-29" value="QUIC" style="edgeStyle=orthogonalEdgeStyle;rounded=0;orthogonalLoop=1;jettySize=auto;html=1;fontSize=12;" parent="1" source="5U8ytU4bZrLR5_oLVIPA-38" target="5U8ytU4bZrLR5_oLVIPA-28" edge="1">
          <mxGeometry x="-0.1993" relative="1" as="geometry">
            <mxPoint x="-30" y="200" as="targetPoint" />
            <Array as="points">
              <mxPoint x="10" y="190" />
              <mxPoint x="10" y="190" />
            </Array>
            <mxPoint as="offset" />
          </mxGeometry>
        </mxCell>
        <mxCell id="5U8ytU4bZrLR5_oLVIPA-22" value="&lt;div&gt;De-multiplex&lt;/div&gt;&lt;div&gt;ingress packets&lt;br&gt;&lt;/div&gt;" style="rounded=0;whiteSpace=wrap;html=1;fillColor=#f5f5f5;fontColor=#333333;strokeColor=#666666;" parent="1" vertex="1">
          <mxGeometry x="120" y="160.5" width="120" height="60" as="geometry" />
        </mxCell>
        <mxCell id="5U8ytU4bZrLR5_oLVIPA-23" value="2" style="ellipse;whiteSpace=wrap;html=1;aspect=fixed;fontSize=12;fontStyle=1;fillColor=#ffe6cc;strokeColor=#d79b00;" parent="1" vertex="1">
          <mxGeometry x="205" y="126.5" width="30" height="30" as="geometry" />
        </mxCell>
        <mxCell id="5U8ytU4bZrLR5_oLVIPA-24" value="Response to ICE" style="rounded=0;whiteSpace=wrap;html=1;fillColor=#647687;fontColor=#ffffff;strokeColor=#314354;" parent="1" vertex="1">
          <mxGeometry x="-130" y="230" width="120" height="60" as="geometry" />
        </mxCell>
        <mxCell id="5U8ytU4bZrLR5_oLVIPA-28" value="Response to QUIC" style="rounded=0;whiteSpace=wrap;html=1;fillColor=#A9C4EB;fontColor=#333333;strokeColor=#666666;" parent="1" vertex="1">
          <mxGeometry x="-130" y="160.5" width="120" height="60" as="geometry" />
        </mxCell>
        <mxCell id="5U8ytU4bZrLR5_oLVIPA-31" value="Response from QUIC" style="rounded=0;whiteSpace=wrap;html=1;fillColor=#A9C4EB;fontColor=#333333;strokeColor=#666666;" parent="1" vertex="1">
          <mxGeometry x="-130" y="323" width="120" height="60" as="geometry" />
        </mxCell>
        <mxCell id="5U8ytU4bZrLR5_oLVIPA-33" value="6" style="ellipse;whiteSpace=wrap;html=1;aspect=fixed;fontSize=12;fontStyle=1;fillColor=#ffe6cc;strokeColor=#d79b00;" parent="1" vertex="1">
          <mxGeometry y="380" width="30" height="30" as="geometry" />
        </mxCell>
        <mxCell id="5U8ytU4bZrLR5_oLVIPA-39" value="" style="edgeStyle=orthogonalEdgeStyle;rounded=0;orthogonalLoop=1;jettySize=auto;html=1;" parent="1" source="5U8ytU4bZrLR5_oLVIPA-22" target="5U8ytU4bZrLR5_oLVIPA-38" edge="1">
          <mxGeometry relative="1" as="geometry">
            <mxPoint x="120" y="190.5" as="sourcePoint" />
            <mxPoint x="120" y="456.5" as="targetPoint" />
            <Array as="points" />
          </mxGeometry>
        </mxCell>
        <mxCell id="5U8ytU4bZrLR5_oLVIPA-38" value="Type" style="rhombus;whiteSpace=wrap;html=1;" parent="1" vertex="1">
          <mxGeometry x="40" y="164" width="50" height="53" as="geometry" />
        </mxCell>
        <mxCell id="5U8ytU4bZrLR5_oLVIPA-60" value="Manage sockets" style="edgeStyle=orthogonalEdgeStyle;rounded=0;orthogonalLoop=1;jettySize=auto;html=1;fontSize=12;verticalAlign=bottom;" parent="1" source="5U8ytU4bZrLR5_oLVIPA-41" target="5U8ytU4bZrLR5_oLVIPA-51" edge="1">
          <mxGeometry relative="1" as="geometry" />
        </mxCell>
        <mxCell id="5U8ytU4bZrLR5_oLVIPA-41" value="Binding from ICE" style="rounded=0;whiteSpace=wrap;html=1;fillColor=#647687;fontColor=#ffffff;strokeColor=#314354;" parent="1" vertex="1">
          <mxGeometry x="-130" y="460" width="120" height="60" as="geometry" />
        </mxCell>
        <mxCell id="5U8ytU4bZrLR5_oLVIPA-44" value="Schedule to send" style="edgeStyle=orthogonalEdgeStyle;rounded=0;orthogonalLoop=1;jettySize=auto;html=1;fontSize=12;verticalAlign=bottom;" parent="1" source="5U8ytU4bZrLR5_oLVIPA-42" target="5U8ytU4bZrLR5_oLVIPA-4" edge="1">
          <mxGeometry x="-0.3632" relative="1" as="geometry">
            <Array as="points">
              <mxPoint x="260" y="413" />
            </Array>
            <mxPoint as="offset" />
          </mxGeometry>
        </mxCell>
        <mxCell id="5U8ytU4bZrLR5_oLVIPA-42" value="&lt;div&gt;Relay STUN&lt;/div&gt;&lt;div&gt;&amp;nbsp;from ICE&lt;/div&gt;" style="rounded=0;whiteSpace=wrap;html=1;fillColor=#647687;fontColor=#ffffff;strokeColor=#314354;" parent="1" vertex="1">
          <mxGeometry x="-130" y="383" width="120" height="60" as="geometry" />
        </mxCell>
        <mxCell id="5U8ytU4bZrLR5_oLVIPA-53" style="edgeStyle=orthogonalEdgeStyle;rounded=0;orthogonalLoop=1;jettySize=auto;html=1;" parent="1" source="5U8ytU4bZrLR5_oLVIPA-43" target="5U8ytU4bZrLR5_oLVIPA-46" edge="1">
          <mxGeometry relative="1" as="geometry">
            <Array as="points" />
          </mxGeometry>
        </mxCell>
        <mxCell id="5U8ytU4bZrLR5_oLVIPA-43" value="&lt;div&gt;NominatedPair&lt;/div&gt;&lt;div&gt;from ICE&lt;br&gt;&lt;/div&gt;" style="rounded=0;whiteSpace=wrap;html=1;fillColor=#647687;fontColor=#ffffff;strokeColor=#314354;" parent="1" vertex="1">
          <mxGeometry x="-130" y="530" width="120" height="60" as="geometry" />
        </mxCell>
        <mxCell id="5U8ytU4bZrLR5_oLVIPA-36" value="&lt;div style=&quot;font-size: 12px;&quot;&gt;Schedule to send&lt;br style=&quot;font-size: 12px;&quot;&gt;&lt;/div&gt;" style="edgeStyle=orthogonalEdgeStyle;rounded=0;orthogonalLoop=1;jettySize=auto;html=1;labelPosition=center;verticalLabelPosition=middle;align=center;verticalAlign=bottom;fontSize=12;horizontal=1;" parent="1" source="5U8ytU4bZrLR5_oLVIPA-31" target="5U8ytU4bZrLR5_oLVIPA-4" edge="1">
          <mxGeometry x="-0.2719" relative="1" as="geometry">
            <mxPoint x="220" y="364" as="sourcePoint" />
            <mxPoint x="300" y="314" as="targetPoint" />
            <Array as="points">
              <mxPoint x="260" y="350" />
            </Array>
            <mxPoint as="offset" />
          </mxGeometry>
        </mxCell>
        <mxCell id="5U8ytU4bZrLR5_oLVIPA-46" value="&lt;div&gt;Add new path&lt;/div&gt;&lt;div&gt;to QUIC&lt;br&gt;&lt;/div&gt;" style="rounded=0;whiteSpace=wrap;html=1;fillColor=#f5f5f5;fontColor=#333333;strokeColor=#666666;" parent="1" vertex="1">
          <mxGeometry x="150" y="530" width="120" height="60" as="geometry" />
        </mxCell>
        <mxCell id="5U8ytU4bZrLR5_oLVIPA-47" value="&lt;div&gt;Remove path&lt;/div&gt;&lt;div&gt;from QUIC&lt;br&gt;&lt;/div&gt;" style="whiteSpace=wrap;html=1;fillColor=#f5f5f5;fontColor=#333333;strokeColor=#666666;" parent="1" vertex="1">
          <mxGeometry x="280" y="530" width="120" height="60" as="geometry" />
        </mxCell>
        <mxCell id="5U8ytU4bZrLR5_oLVIPA-52" style="edgeStyle=orthogonalEdgeStyle;rounded=0;orthogonalLoop=1;jettySize=auto;html=1;" parent="1" source="5U8ytU4bZrLR5_oLVIPA-51" target="5U8ytU4bZrLR5_oLVIPA-4" edge="1">
          <mxGeometry relative="1" as="geometry">
            <Array as="points">
              <mxPoint x="300" y="340" />
              <mxPoint x="300" y="340" />
            </Array>
          </mxGeometry>
        </mxCell>
        <mxCell id="5U8ytU4bZrLR5_oLVIPA-51" value="&lt;div&gt;Add new&lt;/div&gt;&lt;div&gt;socket&lt;br&gt;&lt;/div&gt;" style="whiteSpace=wrap;html=1;fillColor=#f5f5f5;fontColor=#333333;strokeColor=#666666;" parent="1" vertex="1">
          <mxGeometry x="200" y="460" width="120" height="60" as="geometry" />
        </mxCell>
        <mxCell id="5U8ytU4bZrLR5_oLVIPA-55" value="4" style="ellipse;whiteSpace=wrap;html=1;aspect=fixed;fontSize=12;fontStyle=1;fillColor=#ffe6cc;strokeColor=#d79b00;" parent="1" vertex="1">
          <mxGeometry x="70" y="230" width="30" height="30" as="geometry" />
        </mxCell>
        <mxCell id="5U8ytU4bZrLR5_oLVIPA-56" value="8" style="ellipse;whiteSpace=wrap;html=1;aspect=fixed;fontSize=12;fontStyle=1;fillColor=#ffe6cc;strokeColor=#d79b00;" parent="1" vertex="1">
          <mxGeometry y="520" width="30" height="30" as="geometry" />
        </mxCell>
        <mxCell id="5U8ytU4bZrLR5_oLVIPA-57" value="3" style="ellipse;whiteSpace=wrap;html=1;aspect=fixed;fontSize=12;fontStyle=1;fillColor=#ffe6cc;strokeColor=#d79b00;" parent="1" vertex="1">
          <mxGeometry x="20" y="150" width="30" height="30" as="geometry" />
        </mxCell>
        <mxCell id="5U8ytU4bZrLR5_oLVIPA-58" value="9" style="ellipse;whiteSpace=wrap;html=1;aspect=fixed;fontSize=12;fontStyle=1;fillColor=#ffe6cc;strokeColor=#d79b00;" parent="1" vertex="1">
          <mxGeometry x="260" y="420" width="30" height="30" as="geometry" />
        </mxCell>
        <mxCell id="5U8ytU4bZrLR5_oLVIPA-59" value="5" style="ellipse;whiteSpace=wrap;html=1;aspect=fixed;fontSize=12;fontStyle=1;fillColor=#ffe6cc;strokeColor=#d79b00;" parent="1" vertex="1">
          <mxGeometry y="310" width="30" height="30" as="geometry" />
        </mxCell>
        <mxCell id="5U8ytU4bZrLR5_oLVIPA-61" value="7" style="ellipse;whiteSpace=wrap;html=1;aspect=fixed;fontSize=12;fontStyle=1;fillColor=#ffe6cc;strokeColor=#d79b00;" parent="1" vertex="1">
          <mxGeometry y="450" width="30" height="30" as="geometry" />
        </mxCell>
        <mxCell id="5U8ytU4bZrLR5_oLVIPA-62" value="QUIC" style="text;html=1;align=center;verticalAlign=middle;resizable=0;points=[];autosize=1;strokeColor=#666666;fillColor=#A9C4EB;fontStyle=1;fontColor=#333333;" parent="1" vertex="1">
          <mxGeometry x="125" y="80" width="50" height="30" as="geometry" />
        </mxCell>
        <mxCell id="5U8ytU4bZrLR5_oLVIPA-63" value="ICE AGENT" style="text;html=1;align=center;verticalAlign=middle;resizable=0;points=[];autosize=1;strokeColor=#314354;fillColor=#647687;fontStyle=1;fontColor=#ffffff;" parent="1" vertex="1">
          <mxGeometry x="190" y="80" width="90" height="30" as="geometry" />
        </mxCell>
        <mxCell id="5U8ytU4bZrLR5_oLVIPA-65" value="10" style="ellipse;whiteSpace=wrap;html=1;aspect=fixed;fontSize=12;fontStyle=1;fillColor=#ffe6cc;strokeColor=#d79b00;" parent="1" vertex="1">
          <mxGeometry x="350" y="230" width="30" height="30" as="geometry" />
        </mxCell>
        <mxCell id="iadHfbyGvCmugBZnds3B-1" value="" style="rounded=0;whiteSpace=wrap;html=1;fillColor=#D4E1F5;fontColor=#333333;strokeColor=#666666;dashed=1;" parent="1" vertex="1">
          <mxGeometry x="817" y="102" width="150" height="190" as="geometry" />
        </mxCell>
        <mxCell id="iadHfbyGvCmugBZnds3B-2" value="Data packets" style="edgeStyle=orthogonalEdgeStyle;rounded=0;orthogonalLoop=1;jettySize=auto;html=1;startArrow=classic;startFill=1;verticalAlign=bottom;" parent="1" source="iadHfbyGvCmugBZnds3B-4" target="iadHfbyGvCmugBZnds3B-12" edge="1">
          <mxGeometry relative="1" as="geometry">
            <mxPoint x="782" y="154" as="targetPoint" />
          </mxGeometry>
        </mxCell>
        <mxCell id="iadHfbyGvCmugBZnds3B-3" value="&lt;div&gt;Exclude&lt;/div&gt;&lt;div&gt;existing path(s)&lt;/div&gt;" style="edgeStyle=orthogonalEdgeStyle;rounded=0;orthogonalLoop=1;jettySize=auto;html=1;labelPosition=right;verticalLabelPosition=middle;align=left;verticalAlign=middle;spacingLeft=4;" parent="1" source="iadHfbyGvCmugBZnds3B-4" target="iadHfbyGvCmugBZnds3B-7" edge="1">
          <mxGeometry relative="1" as="geometry">
            <Array as="points">
              <mxPoint x="612" y="202" />
              <mxPoint x="612" y="202" />
            </Array>
          </mxGeometry>
        </mxCell>
        <mxCell id="iadHfbyGvCmugBZnds3B-4" value="QUIC" style="rounded=0;whiteSpace=wrap;html=1;fillColor=#f5f5f5;fontColor=#333333;strokeColor=#666666;" parent="1" vertex="1">
          <mxGeometry x="542" y="124" width="120" height="60" as="geometry" />
        </mxCell>
        <mxCell id="iadHfbyGvCmugBZnds3B-5" value="&lt;div&gt;Add&lt;/div&gt;&lt;div&gt;new path&lt;br&gt;&lt;/div&gt;" style="edgeStyle=orthogonalEdgeStyle;rounded=0;orthogonalLoop=1;jettySize=auto;html=1;startArrow=none;startFill=0;strokeWidth=1;fontSize=12;labelPosition=left;verticalLabelPosition=middle;align=right;verticalAlign=middle;horizontal=1;textDirection=ltr;spacingRight=6;" parent="1" source="iadHfbyGvCmugBZnds3B-7" target="iadHfbyGvCmugBZnds3B-4" edge="1">
          <mxGeometry relative="1" as="geometry">
            <Array as="points">
              <mxPoint x="592" y="202" />
              <mxPoint x="592" y="202" />
            </Array>
          </mxGeometry>
        </mxCell>
        <mxCell id="iadHfbyGvCmugBZnds3B-6" style="edgeStyle=none;curved=1;rounded=0;orthogonalLoop=1;jettySize=auto;html=1;fontSize=12;startSize=8;endSize=8;dashed=1;dashPattern=8 8;" parent="1" edge="1">
          <mxGeometry relative="1" as="geometry">
            <mxPoint x="712" y="238" as="targetPoint" />
            <mxPoint x="662" y="238" as="sourcePoint" />
          </mxGeometry>
        </mxCell>
        <mxCell id="iadHfbyGvCmugBZnds3B-7" value="ICE Agent" style="rounded=0;whiteSpace=wrap;html=1;fillColor=#647687;strokeColor=#314354;fontColor=#ffffff;" parent="1" vertex="1">
          <mxGeometry x="542" y="222" width="120" height="60" as="geometry" />
        </mxCell>
        <mxCell id="iadHfbyGvCmugBZnds3B-8" value="1" style="ellipse;whiteSpace=wrap;html=1;aspect=fixed;fontSize=12;fontStyle=1;fillColor=#ffe6cc;strokeColor=#d79b00;" parent="1" vertex="1">
          <mxGeometry x="672" y="120" width="30" height="30" as="geometry" />
        </mxCell>
        <mxCell id="iadHfbyGvCmugBZnds3B-9" value="2" style="ellipse;whiteSpace=wrap;html=1;aspect=fixed;fontSize=12;fontStyle=1;fillColor=#ffe6cc;strokeColor=#d79b00;" parent="1" vertex="1">
          <mxGeometry x="510" y="175" width="30" height="30" as="geometry" />
        </mxCell>
        <mxCell id="iadHfbyGvCmugBZnds3B-10" value="3" style="ellipse;whiteSpace=wrap;html=1;aspect=fixed;fontSize=12;fontStyle=1;fillColor=#ffe6cc;strokeColor=#d79b00;" parent="1" vertex="1">
          <mxGeometry x="665" y="172" width="30" height="30" as="geometry" />
        </mxCell>
        <mxCell id="iadHfbyGvCmugBZnds3B-11" value="&lt;div&gt;(Re)start&lt;/div&gt;&lt;div&gt;gathering&lt;br&gt;&lt;/div&gt;" style="edgeStyle=orthogonalEdgeStyle;rounded=0;orthogonalLoop=1;jettySize=auto;html=1;labelPosition=right;verticalLabelPosition=middle;align=left;verticalAlign=middle;spacingLeft=4;labelBackgroundColor=none;" parent="1" source="iadHfbyGvCmugBZnds3B-12" target="iadHfbyGvCmugBZnds3B-15" edge="1">
          <mxGeometry relative="1" as="geometry">
            <Array as="points">
              <mxPoint x="877" y="202" />
              <mxPoint x="877" y="202" />
            </Array>
          </mxGeometry>
        </mxCell>
        <mxCell id="iadHfbyGvCmugBZnds3B-12" value="QUIC" style="rounded=0;whiteSpace=wrap;html=1;fillColor=#f5f5f5;fontColor=#333333;strokeColor=#666666;" parent="1" vertex="1">
          <mxGeometry x="831" y="124" width="120" height="60" as="geometry" />
        </mxCell>
        <mxCell id="iadHfbyGvCmugBZnds3B-13" value="" style="edgeStyle=orthogonalEdgeStyle;rounded=0;orthogonalLoop=1;jettySize=auto;html=1;startArrow=none;startFill=0;strokeWidth=1;fontSize=12;labelPosition=left;verticalLabelPosition=middle;align=right;verticalAlign=middle;horizontal=1;textDirection=ltr;spacingRight=6;" parent="1" source="iadHfbyGvCmugBZnds3B-15" target="iadHfbyGvCmugBZnds3B-12" edge="1">
          <mxGeometry relative="1" as="geometry">
            <Array as="points">
              <mxPoint x="857" y="202" />
              <mxPoint x="857" y="202" />
            </Array>
          </mxGeometry>
        </mxCell>
        <mxCell id="iadHfbyGvCmugBZnds3B-14" style="edgeStyle=none;curved=1;rounded=0;orthogonalLoop=1;jettySize=auto;html=1;fontSize=12;startSize=8;endSize=8;dashed=1;dashPattern=8 8;" parent="1" edge="1">
          <mxGeometry relative="1" as="geometry">
            <mxPoint x="772" y="238" as="targetPoint" />
            <mxPoint x="831" y="238" as="sourcePoint" />
          </mxGeometry>
        </mxCell>
        <mxCell id="iadHfbyGvCmugBZnds3B-15" value="ICE Agent" style="rounded=0;whiteSpace=wrap;html=1;fillColor=#647687;strokeColor=#314354;fontColor=#ffffff;" parent="1" vertex="1">
          <mxGeometry x="831" y="222" width="120" height="60" as="geometry" />
        </mxCell>
        <mxCell id="iadHfbyGvCmugBZnds3B-16" value="&lt;div style=&quot;font-size: 12px;&quot;&gt;ICE signalling channel&lt;/div&gt;&lt;div style=&quot;font-size: 12px;&quot;&gt;&lt;i&gt;&lt;b&gt;via QUIC&lt;/b&gt;&lt;/i&gt;&lt;br style=&quot;font-size: 12px;&quot;&gt;&lt;/div&gt;" style="curved=1;endArrow=classic;html=1;rounded=0;startArrow=classic;startFill=1;dashed=1;fontStyle=0;fontSize=12;verticalAlign=top;labelPosition=center;verticalLabelPosition=middle;align=center;labelBackgroundColor=none;" parent="1" edge="1">
          <mxGeometry x="-0.0533" width="50" height="50" relative="1" as="geometry">
            <mxPoint x="662" y="259" as="sourcePoint" />
            <mxPoint x="831" y="259" as="targetPoint" />
            <Array as="points" />
            <mxPoint as="offset" />
          </mxGeometry>
        </mxCell>
        <mxCell id="iadHfbyGvCmugBZnds3B-17" value="6" style="ellipse;whiteSpace=wrap;html=1;aspect=fixed;fontSize=12;fontStyle=1;fillColor=#ffe6cc;strokeColor=#d79b00;" parent="1" vertex="1">
          <mxGeometry x="678" y="280" width="30" height="30" as="geometry" />
        </mxCell>
        <mxCell id="iadHfbyGvCmugBZnds3B-18" value="Remote Peer" style="text;html=1;align=center;verticalAlign=middle;resizable=0;points=[];autosize=1;strokeColor=none;fillColor=none;" parent="1" vertex="1">
          <mxGeometry x="820" y="98" width="90" height="30" as="geometry" />
        </mxCell>
        <mxCell id="iadHfbyGvCmugBZnds3B-19" value="4" style="ellipse;whiteSpace=wrap;html=1;aspect=fixed;fontSize=12;fontStyle=1;fillColor=#ffe6cc;strokeColor=#d79b00;" parent="1" vertex="1">
          <mxGeometry x="931" y="186" width="30" height="30" as="geometry" />
        </mxCell>
        <mxCell id="iadHfbyGvCmugBZnds3B-20" value="&lt;div&gt;Probing&amp;nbsp;&lt;/div&gt;&lt;div&gt;path(s)&lt;/div&gt;" style="text;html=1;align=center;verticalAlign=middle;resizable=0;points=[];autosize=1;strokeColor=none;fillColor=none;fontSize=12;" parent="1" vertex="1">
          <mxGeometry x="710" y="219" width="70" height="40" as="geometry" />
        </mxCell>
        <mxCell id="iadHfbyGvCmugBZnds3B-21" value="5" style="ellipse;whiteSpace=wrap;html=1;aspect=fixed;fontSize=12;fontStyle=1;fillColor=#ffe6cc;strokeColor=#d79b00;" parent="1" vertex="1">
          <mxGeometry x="784" y="203" width="30" height="30" as="geometry" />
        </mxCell>
        <mxCell id="iadHfbyGvCmugBZnds3B-23" value="Path Management" style="rounded=0;whiteSpace=wrap;html=1;fillColor=#fff2cc;strokeColor=#d6b656;" parent="1" vertex="1">
          <mxGeometry x="542" y="429" width="120" height="60" as="geometry" />
        </mxCell>
        <mxCell id="iadHfbyGvCmugBZnds3B-42" value="Open new gathering socket (packet)" style="edgeStyle=orthogonalEdgeStyle;rounded=0;orthogonalLoop=1;jettySize=auto;html=1;dashed=1;" parent="1" source="iadHfbyGvCmugBZnds3B-26" target="iadHfbyGvCmugBZnds3B-37" edge="1">
          <mxGeometry relative="1" as="geometry">
            <Array as="points">
              <mxPoint x="1030" y="740" />
            </Array>
          </mxGeometry>
        </mxCell>
        <mxCell id="iadHfbyGvCmugBZnds3B-43" value="Send STUN packet(s)" style="edgeStyle=orthogonalEdgeStyle;rounded=0;orthogonalLoop=1;jettySize=auto;html=1;dashed=1;" parent="1" source="iadHfbyGvCmugBZnds3B-26" target="iadHfbyGvCmugBZnds3B-37" edge="1">
          <mxGeometry relative="1" as="geometry">
            <Array as="points">
              <mxPoint x="1050" y="760" />
            </Array>
          </mxGeometry>
        </mxCell>
        <mxCell id="iadHfbyGvCmugBZnds3B-26" value="Candidate&lt;div&gt;Gathering&lt;/div&gt;" style="rounded=0;whiteSpace=wrap;html=1;fillColor=#fff2cc;strokeColor=#d6b656;" parent="1" vertex="1">
          <mxGeometry x="542" y="710" width="120" height="60" as="geometry" />
        </mxCell>
        <mxCell id="iadHfbyGvCmugBZnds3B-45" value="Schedule&lt;div&gt;to send&lt;/div&gt;" style="edgeStyle=orthogonalEdgeStyle;rounded=0;orthogonalLoop=1;jettySize=auto;html=1;" parent="1" source="iadHfbyGvCmugBZnds3B-33" target="iadHfbyGvCmugBZnds3B-37" edge="1">
          <mxGeometry relative="1" as="geometry">
            <Array as="points">
              <mxPoint x="722" y="510" />
              <mxPoint x="990" y="510" />
            </Array>
          </mxGeometry>
        </mxCell>
        <mxCell id="iadHfbyGvCmugBZnds3B-33" value="Packet Handling" style="rounded=0;whiteSpace=wrap;html=1;fillColor=#fff2cc;strokeColor=#d6b656;" parent="1" vertex="1">
          <mxGeometry x="662" y="429" width="120" height="60" as="geometry" />
        </mxCell>
        <mxCell id="iadHfbyGvCmugBZnds3B-34" value="QUIC" style="text;html=1;align=center;verticalAlign=middle;resizable=0;points=[];autosize=1;strokeColor=none;fillColor=none;" parent="1" vertex="1">
          <mxGeometry x="542" y="399" width="50" height="30" as="geometry" />
        </mxCell>
        <mxCell id="iadHfbyGvCmugBZnds3B-36" value="Quicheperf" style="text;html=1;align=center;verticalAlign=middle;resizable=0;points=[];autosize=1;strokeColor=none;fillColor=none;" parent="1" vertex="1">
          <mxGeometry x="840" y="400" width="80" height="30" as="geometry" />
        </mxCell>
        <mxCell id="iadHfbyGvCmugBZnds3B-50" value="Remove Path&lt;div&gt;on Network Error&lt;/div&gt;" style="edgeStyle=orthogonalEdgeStyle;rounded=0;orthogonalLoop=1;jettySize=auto;html=1;" parent="1" source="iadHfbyGvCmugBZnds3B-37" target="iadHfbyGvCmugBZnds3B-23" edge="1">
          <mxGeometry relative="1" as="geometry">
            <Array as="points">
              <mxPoint x="970" y="550" />
              <mxPoint x="630" y="550" />
            </Array>
          </mxGeometry>
        </mxCell>
        <mxCell id="iadHfbyGvCmugBZnds3B-57" value="Add path to probing" style="edgeStyle=orthogonalEdgeStyle;rounded=0;orthogonalLoop=1;jettySize=auto;html=1;labelPosition=right;verticalLabelPosition=middle;align=left;verticalAlign=middle;" parent="1" source="iadHfbyGvCmugBZnds3B-37" target="iadHfbyGvCmugBZnds3B-41" edge="1">
          <mxGeometry x="0.7605" relative="1" as="geometry">
            <Array as="points">
              <mxPoint x="970" y="550" />
              <mxPoint x="630" y="550" />
            </Array>
            <mxPoint as="offset" />
          </mxGeometry>
        </mxCell>
        <mxCell id="iadHfbyGvCmugBZnds3B-37" value="Socket Handling" style="rounded=0;whiteSpace=wrap;html=1;fillColor=#fff2cc;strokeColor=#d6b656;" parent="1" vertex="1">
          <mxGeometry x="960" y="429" width="120" height="60" as="geometry" />
        </mxCell>
        <mxCell id="iadHfbyGvCmugBZnds3B-44" value="Ingress&lt;div&gt;packet&lt;/div&gt;" style="edgeStyle=orthogonalEdgeStyle;rounded=0;orthogonalLoop=1;jettySize=auto;html=1;" parent="1" source="iadHfbyGvCmugBZnds3B-38" target="iadHfbyGvCmugBZnds3B-33" edge="1">
          <mxGeometry relative="1" as="geometry">
            <Array as="points">
              <mxPoint x="800" y="460" />
              <mxPoint x="800" y="460" />
            </Array>
          </mxGeometry>
        </mxCell>
        <mxCell id="iadHfbyGvCmugBZnds3B-48" value="STUN&lt;div&gt;Response&lt;/div&gt;" style="edgeStyle=orthogonalEdgeStyle;rounded=0;orthogonalLoop=1;jettySize=auto;html=1;dashed=1;" parent="1" source="iadHfbyGvCmugBZnds3B-38" target="iadHfbyGvCmugBZnds3B-41" edge="1">
          <mxGeometry relative="1" as="geometry">
            <Array as="points">
              <mxPoint x="930" y="670" />
            </Array>
          </mxGeometry>
        </mxCell>
        <mxCell id="iadHfbyGvCmugBZnds3B-38" value="Packet&lt;div&gt;de-multiplexing&lt;/div&gt;&lt;div&gt;(STUN, QUIC)&lt;/div&gt;" style="rounded=0;whiteSpace=wrap;html=1;fillColor=#fff2cc;strokeColor=#d6b656;" parent="1" vertex="1">
          <mxGeometry x="840" y="429" width="120" height="60" as="geometry" />
        </mxCell>
        <mxCell id="iadHfbyGvCmugBZnds3B-40" value="ICE Agent" style="text;html=1;align=center;verticalAlign=middle;resizable=0;points=[];autosize=1;fontColor=#FFFFFF;" parent="1" vertex="1">
          <mxGeometry x="710" y="610" width="80" height="30" as="geometry" />
        </mxCell>
        <mxCell id="iadHfbyGvCmugBZnds3B-47" value="Send STUN (packet)" style="edgeStyle=orthogonalEdgeStyle;rounded=0;orthogonalLoop=1;jettySize=auto;html=1;dashed=1;" parent="1" source="iadHfbyGvCmugBZnds3B-41" target="iadHfbyGvCmugBZnds3B-37" edge="1">
          <mxGeometry relative="1" as="geometry">
            <Array as="points">
              <mxPoint x="1010" y="690" />
            </Array>
          </mxGeometry>
        </mxCell>
        <mxCell id="iadHfbyGvCmugBZnds3B-49" value="Add new path" style="edgeStyle=orthogonalEdgeStyle;rounded=0;orthogonalLoop=1;jettySize=auto;html=1;labelPosition=left;verticalLabelPosition=middle;align=right;verticalAlign=middle;" parent="1" source="iadHfbyGvCmugBZnds3B-41" target="iadHfbyGvCmugBZnds3B-23" edge="1">
          <mxGeometry relative="1" as="geometry" />
        </mxCell>
        <mxCell id="iadHfbyGvCmugBZnds3B-41" value="Path Probing" style="rounded=0;whiteSpace=wrap;html=1;fillColor=#fff2cc;strokeColor=#d6b656;" parent="1" vertex="1">
          <mxGeometry x="542" y="650" width="120" height="60" as="geometry" />
        </mxCell>
        <mxCell id="iadHfbyGvCmugBZnds3B-55" value="Exclude&amp;nbsp;&lt;div&gt;used paths&lt;/div&gt;" style="text;html=1;align=center;verticalAlign=middle;resizable=0;points=[];autosize=1;strokeColor=none;fillColor=none;" parent="1" vertex="1">
          <mxGeometry x="1120" y="430" width="80" height="40" as="geometry" />
        </mxCell>
        <mxCell id="iadHfbyGvCmugBZnds3B-56" style="edgeStyle=orthogonalEdgeStyle;rounded=0;orthogonalLoop=1;jettySize=auto;html=1;" parent="1" source="iadHfbyGvCmugBZnds3B-55" target="iadHfbyGvCmugBZnds3B-35" edge="1">
          <mxGeometry relative="1" as="geometry">
            <Array as="points">
              <mxPoint x="1110" y="450" />
              <mxPoint x="1110" y="500" />
            </Array>
          </mxGeometry>
        </mxCell>
        <mxCell id="iadHfbyGvCmugBZnds3B-59" value="ICE Binding&lt;div&gt;packets&lt;/div&gt;" style="rounded=0;whiteSpace=wrap;html=1;fillColor=#fff2cc;strokeColor=#d6b656;" parent="1" vertex="1">
          <mxGeometry x="1234.25" y="152" width="120" height="60" as="geometry" />
        </mxCell>
        <mxCell id="iadHfbyGvCmugBZnds3B-60" value="ICE Relay&lt;div&gt;packets&lt;/div&gt;" style="rounded=0;whiteSpace=wrap;html=1;fillColor=#fff2cc;strokeColor=#d6b656;" parent="1" vertex="1">
          <mxGeometry x="1234.25" y="212" width="120" height="60" as="geometry" />
        </mxCell>
        <mxCell id="iadHfbyGvCmugBZnds3B-62" value="ICE Listener (localhost socket)" style="text;html=1;align=center;verticalAlign=middle;resizable=0;points=[];autosize=1;strokeColor=none;fillColor=none;fontColor=#FFFFFF;" parent="1" vertex="1">
          <mxGeometry x="1247.25" y="82" width="190" height="30" as="geometry" />
        </mxCell>
        <mxCell id="kCcKPWVAT5D1t5MUIoHH-3" value="" style="rounded=0;whiteSpace=wrap;html=1;fillColor=#A6C4E0;strokeColor=#314354;dashed=1;" parent="1" vertex="1">
          <mxGeometry x="590" y="894.5" width="240" height="260" as="geometry" />
        </mxCell>
        <mxCell id="kCcKPWVAT5D1t5MUIoHH-6" value="" style="rounded=0;whiteSpace=wrap;html=1;fillColor=#E6E6E6;fontColor=#333333;strokeColor=#314354;dashed=1;" parent="1" vertex="1">
          <mxGeometry x="380" y="894.5" width="210" height="260" as="geometry" />
        </mxCell>
        <mxCell id="kCcKPWVAT5D1t5MUIoHH-7" value="Path Management" style="rounded=0;whiteSpace=wrap;html=1;fillColor=#fff2cc;strokeColor=#d6b656;" parent="1" vertex="1">
          <mxGeometry x="450" y="1043.5" width="120" height="60" as="geometry" />
        </mxCell>
        <mxCell id="kCcKPWVAT5D1t5MUIoHH-11" value="Schedule&amp;nbsp;&lt;div&gt;to send&lt;/div&gt;" style="edgeStyle=orthogonalEdgeStyle;rounded=0;orthogonalLoop=1;jettySize=auto;html=1;fontColor=default;labelBackgroundColor=#A6C4E0;verticalAlign=top;" parent="1" source="kCcKPWVAT5D1t5MUIoHH-12" target="kCcKPWVAT5D1t5MUIoHH-17" edge="1">
          <mxGeometry x="0.4706" relative="1" as="geometry">
            <Array as="points">
              <mxPoint x="760" y="934.5" />
            </Array>
            <mxPoint as="offset" />
          </mxGeometry>
        </mxCell>
        <mxCell id="kCcKPWVAT5D1t5MUIoHH-12" value="Packet Handling" style="rounded=0;whiteSpace=wrap;html=1;fillColor=#fff2cc;strokeColor=#d6b656;" parent="1" vertex="1">
          <mxGeometry x="390" y="923.5" width="120" height="60" as="geometry" />
        </mxCell>
        <mxCell id="kCcKPWVAT5D1t5MUIoHH-13" value="QUIC" style="text;html=1;align=center;verticalAlign=middle;resizable=0;points=[];autosize=1;strokeColor=none;fillColor=none;fontStyle=1" parent="1" vertex="1">
          <mxGeometry x="380" y="894.5" width="50" height="30" as="geometry" />
        </mxCell>
        <mxCell id="kCcKPWVAT5D1t5MUIoHH-14" value="Quicheperf" style="text;html=1;align=center;verticalAlign=middle;resizable=0;points=[];autosize=1;strokeColor=none;fillColor=none;fontStyle=1" parent="1" vertex="1">
          <mxGeometry x="750" y="893.5" width="80" height="30" as="geometry" />
        </mxCell>
        <mxCell id="kCcKPWVAT5D1t5MUIoHH-15" value="Remove Path&lt;div&gt;(&lt;i&gt;on Network Error&lt;/i&gt;)&lt;/div&gt;" style="edgeStyle=orthogonalEdgeStyle;rounded=0;orthogonalLoop=1;jettySize=auto;html=1;labelBackgroundColor=#E6E6E6;labelPosition=center;verticalLabelPosition=top;align=center;verticalAlign=bottom;" parent="1" source="RLuLyl69-zTDOFJunHbp-9" target="kCcKPWVAT5D1t5MUIoHH-7" edge="1">
          <mxGeometry x="-0.002" relative="1" as="geometry">
            <Array as="points">
              <mxPoint x="510.00000000000006" y="1014.5" />
            </Array>
            <mxPoint as="offset" />
          </mxGeometry>
        </mxCell>
        <mxCell id="RLuLyl69-zTDOFJunHbp-1" value="Packets" style="edgeStyle=orthogonalEdgeStyle;rounded=0;orthogonalLoop=1;jettySize=auto;html=1;startArrow=classic;startFill=1;verticalAlign=bottom;" parent="1" source="kCcKPWVAT5D1t5MUIoHH-17" edge="1">
          <mxGeometry relative="1" as="geometry">
            <mxPoint x="903.75" y="943.5" as="targetPoint" />
          </mxGeometry>
        </mxCell>
        <mxCell id="kCcKPWVAT5D1t5MUIoHH-17" value="Socket Handling&lt;div&gt;(&lt;i&gt;send, receive,&lt;/i&gt;&lt;/div&gt;&lt;div&gt;&lt;i&gt;add, remove&lt;/i&gt;)&lt;/div&gt;" style="rounded=0;whiteSpace=wrap;html=1;fillColor=#fff2cc;strokeColor=#d6b656;" parent="1" vertex="1">
          <mxGeometry x="700" y="984.5" width="120" height="60" as="geometry" />
        </mxCell>
        <mxCell id="kCcKPWVAT5D1t5MUIoHH-18" value="QUIC ingress&amp;nbsp;&lt;div&gt;packet(s)&lt;/div&gt;" style="edgeStyle=orthogonalEdgeStyle;rounded=0;orthogonalLoop=1;jettySize=auto;html=1;labelBackgroundColor=#E6E6E6;verticalAlign=top;" parent="1" source="RLuLyl69-zTDOFJunHbp-9" target="kCcKPWVAT5D1t5MUIoHH-12" edge="1">
          <mxGeometry x="0.4805" relative="1" as="geometry">
            <Array as="points">
              <mxPoint x="634" y="944.5" />
            </Array>
            <mxPoint as="offset" />
          </mxGeometry>
        </mxCell>
        <mxCell id="kCcKPWVAT5D1t5MUIoHH-25" value="Easy layout&lt;div&gt;QUIC &amp;lt;-&amp;gt; Quicheperf&lt;/div&gt;" style="text;html=1;align=center;verticalAlign=middle;resizable=0;points=[];autosize=1;strokeColor=none;fillColor=none;" parent="1" vertex="1">
          <mxGeometry x="310" y="810" width="140" height="40" as="geometry" />
        </mxCell>
        <mxCell id="RLuLyl69-zTDOFJunHbp-14" value="Binding, STUN relay" style="edgeStyle=orthogonalEdgeStyle;rounded=0;orthogonalLoop=1;jettySize=auto;html=1;dashed=1;labelPosition=left;verticalLabelPosition=middle;align=right;verticalAlign=middle;labelBackgroundColor=#A6C4E0;spacingRight=2;" parent="1" source="kCcKPWVAT5D1t5MUIoHH-26" target="kCcKPWVAT5D1t5MUIoHH-17" edge="1">
          <mxGeometry relative="1" as="geometry">
            <Array as="points">
              <mxPoint x="790" y="1064.5" />
              <mxPoint x="790" y="1064.5" />
            </Array>
          </mxGeometry>
        </mxCell>
        <mxCell id="kCcKPWVAT5D1t5MUIoHH-26" value="ICE Agent&lt;div&gt;Handling&lt;/div&gt;&lt;div&gt;(&lt;i&gt;in parallel&lt;/i&gt;)&lt;/div&gt;" style="rounded=0;whiteSpace=wrap;html=1;fillColor=#fff2cc;strokeColor=#d6b656;" parent="1" vertex="1">
          <mxGeometry x="700" y="1074.5" width="120" height="60" as="geometry" />
        </mxCell>
        <mxCell id="kCcKPWVAT5D1t5MUIoHH-2" value="&lt;div&gt;Synchronization/ICE Candidates packet(s)&lt;/div&gt;" style="edgeStyle=orthogonalEdgeStyle;rounded=0;orthogonalLoop=1;jettySize=auto;html=1;labelBackgroundColor=#E6E6E6;verticalAlign=top;" parent="1" source="kCcKPWVAT5D1t5MUIoHH-26" target="kCcKPWVAT5D1t5MUIoHH-12" edge="1">
          <mxGeometry x="-0.0974" relative="1" as="geometry">
            <Array as="points">
              <mxPoint x="420" y="1124.5" />
            </Array>
            <mxPoint as="offset" />
          </mxGeometry>
        </mxCell>
        <mxCell id="kCcKPWVAT5D1t5MUIoHH-33" value="Quicheperf" style="text;html=1;align=center;verticalAlign=middle;resizable=0;points=[];autosize=1;strokeColor=none;fillColor=none;" parent="1" vertex="1">
          <mxGeometry x="693" y="1250" width="80" height="30" as="geometry" />
        </mxCell>
        <mxCell id="kCcKPWVAT5D1t5MUIoHH-56" style="edgeStyle=orthogonalEdgeStyle;rounded=0;orthogonalLoop=1;jettySize=auto;html=1;dashed=1;" parent="1" source="kCcKPWVAT5D1t5MUIoHH-35" target="kCcKPWVAT5D1t5MUIoHH-45" edge="1">
          <mxGeometry relative="1" as="geometry">
            <Array as="points">
              <mxPoint x="590" y="1330" />
              <mxPoint x="590" y="1350" />
            </Array>
          </mxGeometry>
        </mxCell>
        <mxCell id="kCcKPWVAT5D1t5MUIoHH-35" value="Socket Handling" style="rounded=0;whiteSpace=wrap;html=1;fillColor=#fff2cc;strokeColor=#d6b656;" parent="1" vertex="1">
          <mxGeometry x="693" y="1279" width="120" height="60" as="geometry" />
        </mxCell>
        <mxCell id="kCcKPWVAT5D1t5MUIoHH-37" value="Packet&lt;div&gt;de-multiplexing&lt;/div&gt;&lt;div&gt;(STUN, QUIC)&lt;/div&gt;" style="rounded=0;whiteSpace=wrap;html=1;fillColor=#fff2cc;strokeColor=#d6b656;" parent="1" vertex="1">
          <mxGeometry x="693" y="1339" width="120" height="60" as="geometry" />
        </mxCell>
        <mxCell id="kCcKPWVAT5D1t5MUIoHH-38" value="ICE Agent&lt;div&gt;Handling&lt;/div&gt;" style="rounded=0;whiteSpace=wrap;html=1;fillColor=#fff2cc;strokeColor=#d6b656;" parent="1" vertex="1">
          <mxGeometry x="693" y="1399" width="120" height="60" as="geometry" />
        </mxCell>
        <mxCell id="kCcKPWVAT5D1t5MUIoHH-40" value="(Re)start ICE Agent" style="edgeStyle=orthogonalEdgeStyle;rounded=0;orthogonalLoop=1;jettySize=auto;html=1;dashed=1;dashPattern=12 12;" parent="1" source="kCcKPWVAT5D1t5MUIoHH-27" target="kCcKPWVAT5D1t5MUIoHH-42" edge="1">
          <mxGeometry relative="1" as="geometry">
            <Array as="points">
              <mxPoint x="750" y="1220" />
              <mxPoint x="552" y="1220" />
            </Array>
            <mxPoint x="783" y="1240" as="sourcePoint" />
          </mxGeometry>
        </mxCell>
        <mxCell id="kCcKPWVAT5D1t5MUIoHH-43" value="Open new gathering&amp;nbsp;&lt;div&gt;socket (packet)&lt;/div&gt;" style="edgeStyle=orthogonalEdgeStyle;rounded=0;orthogonalLoop=1;jettySize=auto;html=1;dashed=1;labelPosition=left;verticalLabelPosition=middle;align=right;verticalAlign=middle;" parent="1" source="kCcKPWVAT5D1t5MUIoHH-45" target="kCcKPWVAT5D1t5MUIoHH-35" edge="1">
          <mxGeometry x="0.0606" y="-2" relative="1" as="geometry">
            <Array as="points">
              <mxPoint x="660" y="1390" />
              <mxPoint x="660" y="1320" />
            </Array>
            <mxPoint x="923" y="1129" as="targetPoint" />
            <mxPoint as="offset" />
          </mxGeometry>
        </mxCell>
        <mxCell id="kCcKPWVAT5D1t5MUIoHH-44" value="" style="edgeStyle=orthogonalEdgeStyle;rounded=0;orthogonalLoop=1;jettySize=auto;html=1;dashed=1;" parent="1" source="kCcKPWVAT5D1t5MUIoHH-45" target="kCcKPWVAT5D1t5MUIoHH-35" edge="1">
          <mxGeometry relative="1" as="geometry">
            <Array as="points">
              <mxPoint x="630" y="1370" />
              <mxPoint x="630" y="1310" />
            </Array>
            <mxPoint x="943" y="1129" as="targetPoint" />
          </mxGeometry>
        </mxCell>
        <mxCell id="kCcKPWVAT5D1t5MUIoHH-45" value="Candidate&lt;div&gt;Gathering&lt;/div&gt;" style="rounded=0;whiteSpace=wrap;html=1;fillColor=#fff2cc;strokeColor=#d6b656;" parent="1" vertex="1">
          <mxGeometry x="435" y="1340" width="120" height="60" as="geometry" />
        </mxCell>
        <mxCell id="kCcKPWVAT5D1t5MUIoHH-50" value="STUN&lt;div&gt;Response&lt;/div&gt;" style="edgeStyle=orthogonalEdgeStyle;rounded=0;orthogonalLoop=1;jettySize=auto;html=1;dashed=1;labelBackgroundColor=none;fontColor=#FFFFFF;" parent="1" source="kCcKPWVAT5D1t5MUIoHH-35" target="kCcKPWVAT5D1t5MUIoHH-54" edge="1">
          <mxGeometry relative="1" as="geometry">
            <Array as="points">
              <mxPoint x="620" y="1290" />
              <mxPoint x="620" y="1290" />
            </Array>
            <mxPoint x="823" y="1129" as="sourcePoint" />
          </mxGeometry>
        </mxCell>
        <mxCell id="kCcKPWVAT5D1t5MUIoHH-51" value="ICE Agent" style="text;html=1;align=center;verticalAlign=middle;resizable=0;points=[];autosize=1;fontColor=#FFFFFF;" parent="1" vertex="1">
          <mxGeometry x="420" y="1249" width="80" height="30" as="geometry" />
        </mxCell>
        <mxCell id="kCcKPWVAT5D1t5MUIoHH-52" value="Send STUN (packet)" style="edgeStyle=orthogonalEdgeStyle;rounded=0;orthogonalLoop=1;jettySize=auto;html=1;dashed=1;labelBackgroundColor=none;fontColor=#FFFFFF;" parent="1" source="kCcKPWVAT5D1t5MUIoHH-54" target="kCcKPWVAT5D1t5MUIoHH-35" edge="1">
          <mxGeometry relative="1" as="geometry">
            <Array as="points">
              <mxPoint x="620" y="1310" />
              <mxPoint x="620" y="1310" />
            </Array>
            <mxPoint x="903" y="1129" as="targetPoint" />
          </mxGeometry>
        </mxCell>
        <mxCell id="kCcKPWVAT5D1t5MUIoHH-54" value="Path Probing" style="rounded=0;whiteSpace=wrap;html=1;fillColor=#fff2cc;strokeColor=#d6b656;" parent="1" vertex="1">
          <mxGeometry x="435" y="1279" width="120" height="60" as="geometry" />
        </mxCell>
        <mxCell id="kCcKPWVAT5D1t5MUIoHH-41" value="Synchronize" style="edgeStyle=orthogonalEdgeStyle;rounded=0;orthogonalLoop=1;jettySize=auto;html=1;" parent="1" source="kCcKPWVAT5D1t5MUIoHH-45" target="kCcKPWVAT5D1t5MUIoHH-38" edge="1">
          <mxGeometry x="-0.001" relative="1" as="geometry">
            <Array as="points">
              <mxPoint x="495.00000000000006" y="1430" />
            </Array>
            <mxPoint x="963" y="1240" as="targetPoint" />
            <mxPoint as="offset" />
          </mxGeometry>
        </mxCell>
        <mxCell id="RLuLyl69-zTDOFJunHbp-3" value="1" style="ellipse;whiteSpace=wrap;html=1;aspect=fixed;fontSize=12;fontStyle=1;fillColor=#ffe6cc;strokeColor=#d79b00;" parent="1" vertex="1">
          <mxGeometry x="863.75" y="893.5" width="30" height="30" as="geometry" />
        </mxCell>
        <mxCell id="RLuLyl69-zTDOFJunHbp-4" value="2" style="ellipse;whiteSpace=wrap;html=1;aspect=fixed;fontSize=12;fontStyle=1;fillColor=#ffe6cc;strokeColor=#d79b00;" parent="1" vertex="1">
          <mxGeometry x="662" y="974.5" width="30" height="30" as="geometry" />
        </mxCell>
        <mxCell id="RLuLyl69-zTDOFJunHbp-8" value="" style="shape=image;verticalLabelPosition=bottom;labelBackgroundColor=default;verticalAlign=top;aspect=fixed;imageAspect=0;image=data:image/svg+xml,PHN2ZyB4bWxucz0iaHR0cDovL3d3dy53My5vcmcvMjAwMC9zdmciIGZpbGw9IiMwMDAwMDAiIHdpZHRoPSIyMHB4IiB2aWV3Qm94PSIwIC05NjAgOTYwIDk2MCIgaGVpZ2h0PSIyMHB4Ij48cGF0aCBkPSJtMzM5LTI4OCAxNDEtMTQxIDE0MSAxNDEgNTEtNTEtMTQxLTE0MSAxNDEtMTQxLTUxLTUxLTE0MSAxNDEtMTQxLTE0MS01MSA1MSAxNDEgMTQxLTE0MSAxNDEgNTEgNTFaTTQ4MC05NnEtNzkgMC0xNDktMzB0LTEyMi41LTgyLjVRMTU2LTI2MSAxMjYtMzMxVDk2LTQ4MHEwLTgwIDMwLTE0OS41dDgyLjUtMTIyUTI2MS04MDQgMzMxLTgzNHQxNDktMzBxODAgMCAxNDkuNSAzMHQxMjIgODIuNVE4MDQtNjk5IDgzNC02MjkuNVQ4NjQtNDgwcTAgNzktMzAgMTQ5dC04Mi41IDEyMi41UTY5OS0xNTYgNjI5LjUtMTI2VDQ4MC05NlptMC03MnExMzAgMCAyMjEtOTF0OTEtMjIxcTAtMTMwLTkxLTIyMXQtMjIxLTkxcS0xMzAgMC0yMjEgOTF0LTkxIDIyMXEwIDEzMCA5MSAyMjF0MjIxIDkxWm0wLTMxMloiLz48L3N2Zz4=;" parent="1" vertex="1">
          <mxGeometry x="492.00000000000006" y="987.5" width="10" height="10" as="geometry" />
        </mxCell>
        <mxCell id="RLuLyl69-zTDOFJunHbp-12" value="" style="edgeStyle=orthogonalEdgeStyle;rounded=0;orthogonalLoop=1;jettySize=auto;html=1;labelBackgroundColor=#E6E6E6;" parent="1" source="kCcKPWVAT5D1t5MUIoHH-17" target="RLuLyl69-zTDOFJunHbp-9" edge="1">
          <mxGeometry x="0.0007" relative="1" as="geometry">
            <Array as="points">
              <mxPoint x="690" y="1014.5" />
              <mxPoint x="690" y="1014.5" />
            </Array>
            <mxPoint x="697" y="943.5" as="sourcePoint" />
            <mxPoint x="260" y="1034.5" as="targetPoint" />
            <mxPoint as="offset" />
          </mxGeometry>
        </mxCell>
        <mxCell id="RLuLyl69-zTDOFJunHbp-15" value="STUN &amp;amp; ICE&lt;div&gt;ingress packet&lt;/div&gt;" style="edgeStyle=orthogonalEdgeStyle;rounded=0;orthogonalLoop=1;jettySize=auto;html=1;labelBackgroundColor=#A6C4E0;" parent="1" source="RLuLyl69-zTDOFJunHbp-9" target="kCcKPWVAT5D1t5MUIoHH-26" edge="1">
          <mxGeometry relative="1" as="geometry">
            <Array as="points">
              <mxPoint x="634" y="1104.5" />
            </Array>
          </mxGeometry>
        </mxCell>
        <mxCell id="RLuLyl69-zTDOFJunHbp-9" value="De-&lt;span style=&quot;background-color: initial;&quot;&gt;Multiplex&lt;/span&gt;" style="rhombus;whiteSpace=wrap;html=1;fillColor=#fff2cc;strokeColor=#d6b656;" parent="1" vertex="1">
          <mxGeometry x="592" y="974.5" width="84" height="80" as="geometry" />
        </mxCell>
        <mxCell id="RLuLyl69-zTDOFJunHbp-17" value="3" style="ellipse;whiteSpace=wrap;html=1;aspect=fixed;fontSize=12;fontStyle=1;fillColor=#ffe6cc;strokeColor=#d79b00;" parent="1" vertex="1">
          <mxGeometry x="600" y="947.5" width="30" height="30" as="geometry" />
        </mxCell>
        <mxCell id="RLuLyl69-zTDOFJunHbp-18" value="4" style="ellipse;whiteSpace=wrap;html=1;aspect=fixed;fontSize=12;fontStyle=1;fillColor=#ffe6cc;strokeColor=#d79b00;" parent="1" vertex="1">
          <mxGeometry x="641" y="1051.5" width="30" height="30" as="geometry" />
        </mxCell>
        <mxCell id="RLuLyl69-zTDOFJunHbp-19" value="5" style="ellipse;whiteSpace=wrap;html=1;aspect=fixed;fontSize=12;fontStyle=1;fillColor=#ffe6cc;strokeColor=#d79b00;" parent="1" vertex="1">
          <mxGeometry x="460" y="993.5" width="30" height="30" as="geometry" />
        </mxCell>
        <mxCell id="RLuLyl69-zTDOFJunHbp-20" value="5" style="ellipse;whiteSpace=wrap;html=1;aspect=fixed;fontSize=12;fontStyle=1;fillColor=#ffe6cc;strokeColor=#d79b00;" parent="1" vertex="1">
          <mxGeometry x="385" y="1100.5" width="30" height="30" as="geometry" />
        </mxCell>
        <mxCell id="RLuLyl69-zTDOFJunHbp-21" value="" style="rounded=0;whiteSpace=wrap;html=1;fillColor=#A6C4E0;strokeColor=#314354;dashed=1;" parent="1" vertex="1">
          <mxGeometry x="-99.55" y="889.5" width="219.5" height="238" as="geometry" />
        </mxCell>
        <mxCell id="RLuLyl69-zTDOFJunHbp-22" value="" style="rounded=0;whiteSpace=wrap;html=1;fillColor=#E6E6E6;fontColor=#333333;strokeColor=#314354;dashed=1;" parent="1" vertex="1">
          <mxGeometry x="-349.55" y="889.5" width="250" height="238" as="geometry" />
        </mxCell>
        <mxCell id="RLuLyl69-zTDOFJunHbp-23" value="Path Management" style="rounded=0;whiteSpace=wrap;html=1;fillColor=#fff2cc;strokeColor=#d6b656;" parent="1" vertex="1">
          <mxGeometry x="-323.55" y="982.5" width="120" height="60" as="geometry" />
        </mxCell>
        <mxCell id="RLuLyl69-zTDOFJunHbp-24" value="Schedule&amp;nbsp;&lt;div&gt;to send&lt;/div&gt;" style="edgeStyle=orthogonalEdgeStyle;rounded=0;orthogonalLoop=1;jettySize=auto;html=1;fontColor=default;labelBackgroundColor=none;verticalAlign=bottom;" parent="1" source="RLuLyl69-zTDOFJunHbp-25" target="RLuLyl69-zTDOFJunHbp-30" edge="1">
          <mxGeometry x="0.418" relative="1" as="geometry">
            <Array as="points">
              <mxPoint x="-99.55" y="929.5" />
              <mxPoint x="-99.55" y="929.5" />
            </Array>
            <mxPoint as="offset" />
          </mxGeometry>
        </mxCell>
        <mxCell id="RLuLyl69-zTDOFJunHbp-25" value="Packet Handling" style="rounded=0;whiteSpace=wrap;html=1;fillColor=#fff2cc;strokeColor=#d6b656;" parent="1" vertex="1">
          <mxGeometry x="-323.55" y="919.5" width="120" height="60" as="geometry" />
        </mxCell>
        <mxCell id="RLuLyl69-zTDOFJunHbp-26" value="QUIC" style="text;html=1;align=center;verticalAlign=middle;resizable=0;points=[];autosize=1;strokeColor=none;fillColor=none;fontStyle=1" parent="1" vertex="1">
          <mxGeometry x="-330.05" y="889.5" width="50" height="30" as="geometry" />
        </mxCell>
        <mxCell id="RLuLyl69-zTDOFJunHbp-27" value="Quicheperf" style="text;html=1;align=center;verticalAlign=middle;resizable=0;points=[];autosize=1;strokeColor=none;fillColor=none;fontStyle=1" parent="1" vertex="1">
          <mxGeometry x="39.95" y="888.5" width="80" height="30" as="geometry" />
        </mxCell>
        <mxCell id="RLuLyl69-zTDOFJunHbp-28" value="Remove Path&lt;div&gt;(&lt;i&gt;on Network Error&lt;/i&gt;)&lt;/div&gt;" style="edgeStyle=orthogonalEdgeStyle;rounded=0;orthogonalLoop=1;jettySize=auto;html=1;labelBackgroundColor=none;labelPosition=center;verticalLabelPosition=top;align=center;verticalAlign=bottom;" parent="1" source="RLuLyl69-zTDOFJunHbp-40" target="RLuLyl69-zTDOFJunHbp-23" edge="1">
          <mxGeometry x="0.0526" relative="1" as="geometry">
            <Array as="points">
              <mxPoint x="-149.55" y="1012.5" />
              <mxPoint x="-149.55" y="1012.5" />
            </Array>
            <mxPoint as="offset" />
          </mxGeometry>
        </mxCell>
        <mxCell id="RLuLyl69-zTDOFJunHbp-29" value="Packets" style="edgeStyle=orthogonalEdgeStyle;rounded=0;orthogonalLoop=1;jettySize=auto;html=1;startArrow=classic;startFill=1;verticalAlign=bottom;dashed=1;" parent="1" source="RLuLyl69-zTDOFJunHbp-30" edge="1">
          <mxGeometry relative="1" as="geometry">
            <mxPoint x="180.95" y="948.5" as="targetPoint" />
          </mxGeometry>
        </mxCell>
        <mxCell id="RLuLyl69-zTDOFJunHbp-30" value="Socket Handling&lt;div&gt;(&lt;i&gt;send, receive,&lt;/i&gt;&lt;/div&gt;&lt;div&gt;&lt;i&gt;add, remove&lt;/i&gt;)&lt;/div&gt;" style="rounded=0;whiteSpace=wrap;html=1;fillColor=#fff2cc;strokeColor=#d6b656;" parent="1" vertex="1">
          <mxGeometry x="-14.549999999999997" y="918.5" width="120" height="60" as="geometry" />
        </mxCell>
        <mxCell id="RLuLyl69-zTDOFJunHbp-31" value="QUIC ingress&amp;nbsp;&lt;div&gt;packet(s)&lt;/div&gt;" style="edgeStyle=orthogonalEdgeStyle;rounded=0;orthogonalLoop=1;jettySize=auto;html=1;labelBackgroundColor=none;verticalAlign=bottom;" parent="1" source="RLuLyl69-zTDOFJunHbp-40" target="RLuLyl69-zTDOFJunHbp-25" edge="1">
          <mxGeometry x="0.4316" relative="1" as="geometry">
            <Array as="points">
              <mxPoint x="-47.55" y="965.5" />
            </Array>
            <mxPoint as="offset" />
          </mxGeometry>
        </mxCell>
        <mxCell id="RLuLyl69-zTDOFJunHbp-48" value="Add Path (&lt;i&gt;via Quicheperf&lt;/i&gt;)" style="edgeStyle=orthogonalEdgeStyle;rounded=0;orthogonalLoop=1;jettySize=auto;html=1;dashed=1;labelBackgroundColor=none;verticalAlign=bottom;" parent="1" source="RLuLyl69-zTDOFJunHbp-33" target="RLuLyl69-zTDOFJunHbp-23" edge="1">
          <mxGeometry x="0.2511" relative="1" as="geometry">
            <Array as="points">
              <mxPoint x="-263.55" y="1069.5" />
            </Array>
            <mxPoint as="offset" />
          </mxGeometry>
        </mxCell>
        <mxCell id="RLuLyl69-zTDOFJunHbp-33" value="ICE Agent" style="rounded=0;whiteSpace=wrap;html=1;fillColor=#f5f5f5;strokeColor=#666666;fontColor=#333333;" parent="1" vertex="1">
          <mxGeometry x="-32.3" y="1061.5" width="85" height="34" as="geometry" />
        </mxCell>
        <mxCell id="RLuLyl69-zTDOFJunHbp-34" value="&lt;div&gt;Synchronization / Credentials / Candidates&lt;/div&gt;&lt;div&gt;&lt;span style=&quot;background-color: initial;&quot;&gt;(&lt;i&gt;via Quicheperf&lt;/i&gt;)&lt;/span&gt;&lt;/div&gt;" style="edgeStyle=orthogonalEdgeStyle;rounded=0;orthogonalLoop=1;jettySize=auto;html=1;labelBackgroundColor=none;verticalAlign=bottom;dashed=1;" parent="1" source="RLuLyl69-zTDOFJunHbp-33" target="RLuLyl69-zTDOFJunHbp-25" edge="1">
          <mxGeometry x="-0.0984" relative="1" as="geometry">
            <Array as="points">
              <mxPoint x="10.450000000000003" y="1109.5" />
              <mxPoint x="-339.55" y="1109.5" />
              <mxPoint x="-339.55" y="948.5" />
            </Array>
            <mxPoint as="offset" />
          </mxGeometry>
        </mxCell>
        <mxCell id="RLuLyl69-zTDOFJunHbp-35" value="1" style="ellipse;whiteSpace=wrap;html=1;aspect=fixed;fontSize=12;fontStyle=1;fillColor=#ffe6cc;strokeColor=#d79b00;" parent="1" vertex="1">
          <mxGeometry x="130.45" y="952.5" width="30" height="30" as="geometry" />
        </mxCell>
        <mxCell id="RLuLyl69-zTDOFJunHbp-36" value="2" style="ellipse;whiteSpace=wrap;html=1;aspect=fixed;fontSize=12;fontStyle=1;fillColor=#ffe6cc;strokeColor=#d79b00;" parent="1" vertex="1">
          <mxGeometry x="5.450000000000003" y="980.5" width="30" height="30" as="geometry" />
        </mxCell>
        <mxCell id="RLuLyl69-zTDOFJunHbp-38" value="" style="edgeStyle=orthogonalEdgeStyle;rounded=0;orthogonalLoop=1;jettySize=auto;html=1;labelBackgroundColor=#E6E6E6;" parent="1" source="RLuLyl69-zTDOFJunHbp-30" target="RLuLyl69-zTDOFJunHbp-40" edge="1">
          <mxGeometry x="0.0007" relative="1" as="geometry">
            <Array as="points">
              <mxPoint x="45.45" y="1012.5" />
            </Array>
            <mxPoint x="-13.049999999999997" y="938.5" as="sourcePoint" />
            <mxPoint x="-450.05" y="1029.5" as="targetPoint" />
            <mxPoint as="offset" />
          </mxGeometry>
        </mxCell>
        <mxCell id="RLuLyl69-zTDOFJunHbp-40" value="De-&lt;span style=&quot;background-color: initial;&quot;&gt;Multiplex&lt;/span&gt;" style="rhombus;whiteSpace=wrap;html=1;fillColor=#fff2cc;strokeColor=#d6b656;" parent="1" vertex="1">
          <mxGeometry x="-89.55" y="972.5" width="84" height="80" as="geometry" />
        </mxCell>
        <mxCell id="RLuLyl69-zTDOFJunHbp-41" value="3" style="ellipse;whiteSpace=wrap;html=1;aspect=fixed;fontSize=12;fontStyle=1;fillColor=#ffe6cc;strokeColor=#d79b00;" parent="1" vertex="1">
          <mxGeometry x="-44.55" y="893.5" width="30" height="30" as="geometry" />
        </mxCell>
        <mxCell id="RLuLyl69-zTDOFJunHbp-44" value="7" style="ellipse;whiteSpace=wrap;html=1;aspect=fixed;fontSize=12;fontStyle=1;fillColor=#ffe6cc;strokeColor=#d79b00;" parent="1" vertex="1">
          <mxGeometry x="-109.55" y="1076.5" width="30" height="30" as="geometry" />
        </mxCell>
        <mxCell id="RLuLyl69-zTDOFJunHbp-46" value="4" style="ellipse;whiteSpace=wrap;html=1;aspect=fixed;fontSize=12;fontStyle=1;fillColor=#ffe6cc;strokeColor=#d79b00;" parent="1" vertex="1">
          <mxGeometry x="-121.55" y="933.5" width="30" height="30" as="geometry" />
        </mxCell>
        <mxCell id="RLuLyl69-zTDOFJunHbp-47" value="5" style="ellipse;whiteSpace=wrap;html=1;aspect=fixed;fontSize=12;fontStyle=1;fillColor=#ffe6cc;strokeColor=#d79b00;" parent="1" vertex="1">
          <mxGeometry x="-106.55" y="973.5" width="30" height="30" as="geometry" />
        </mxCell>
        <mxCell id="RLuLyl69-zTDOFJunHbp-49" value="6" style="ellipse;whiteSpace=wrap;html=1;aspect=fixed;fontSize=12;fontStyle=1;fillColor=#ffe6cc;strokeColor=#d79b00;" parent="1" vertex="1">
          <mxGeometry x="-117.55" y="1033.5" width="30" height="30" as="geometry" />
        </mxCell>
        <mxCell id="g0aTvsE6Svlh8jWhcZFR-17" value="" style="rounded=0;whiteSpace=wrap;html=1;fillColor=#A6C4E0;strokeColor=#314354;dashed=1;" parent="1" vertex="1">
          <mxGeometry x="-146.3" y="1179.5" width="249.5" height="257.5" as="geometry" />
        </mxCell>
        <mxCell id="g0aTvsE6Svlh8jWhcZFR-18" value="Quicheperf" style="text;html=1;align=center;verticalAlign=middle;resizable=0;points=[];autosize=1;strokeColor=none;fillColor=none;fontStyle=1" parent="1" vertex="1">
          <mxGeometry x="23.200000000000003" y="1178.5" width="80" height="30" as="geometry" />
        </mxCell>
        <mxCell id="g0aTvsE6Svlh8jWhcZFR-19" value="Packets" style="edgeStyle=orthogonalEdgeStyle;rounded=0;orthogonalLoop=1;jettySize=auto;html=1;startArrow=classic;startFill=1;verticalAlign=bottom;dashed=1;" parent="1" source="g0aTvsE6Svlh8jWhcZFR-20" edge="1">
          <mxGeometry relative="1" as="geometry">
            <mxPoint x="164.2" y="1238.5" as="targetPoint" />
          </mxGeometry>
        </mxCell>
        <mxCell id="g0aTvsE6Svlh8jWhcZFR-20" value="Socket Handling&lt;div&gt;(&lt;i&gt;send, receive)&lt;/i&gt;&lt;/div&gt;" style="rounded=0;whiteSpace=wrap;html=1;fillColor=#fff2cc;strokeColor=#d6b656;" parent="1" vertex="1">
          <mxGeometry x="-31.299999999999997" y="1208.5" width="120" height="60" as="geometry" />
        </mxCell>
        <mxCell id="g0aTvsE6Svlh8jWhcZFR-21" value="QUIC" style="rounded=0;whiteSpace=wrap;html=1;fillColor=#f5f5f5;strokeColor=#666666;fontColor=#333333;" parent="1" vertex="1">
          <mxGeometry x="-13.799999999999997" y="1388" width="85" height="34" as="geometry" />
        </mxCell>
        <mxCell id="g0aTvsE6Svlh8jWhcZFR-22" value="1" style="ellipse;whiteSpace=wrap;html=1;aspect=fixed;fontSize=12;fontStyle=1;fillColor=#ffe6cc;strokeColor=#d79b00;" parent="1" vertex="1">
          <mxGeometry x="113.7" y="1242.5" width="30" height="30" as="geometry" />
        </mxCell>
        <mxCell id="g0aTvsE6Svlh8jWhcZFR-23" value="2" style="ellipse;whiteSpace=wrap;html=1;aspect=fixed;fontSize=12;fontStyle=1;fillColor=#ffe6cc;strokeColor=#d79b00;" parent="1" vertex="1">
          <mxGeometry x="-65.3" y="1197" width="30" height="30" as="geometry" />
        </mxCell>
        <mxCell id="g0aTvsE6Svlh8jWhcZFR-24" value="" style="edgeStyle=orthogonalEdgeStyle;rounded=0;orthogonalLoop=1;jettySize=auto;html=1;labelBackgroundColor=#E6E6E6;" parent="1" source="g0aTvsE6Svlh8jWhcZFR-20" target="g0aTvsE6Svlh8jWhcZFR-25" edge="1">
          <mxGeometry x="0.0007" relative="1" as="geometry">
            <Array as="points">
              <mxPoint x="-36.3" y="1237" />
              <mxPoint x="-36.3" y="1237" />
            </Array>
            <mxPoint x="-29.799999999999997" y="1228.5" as="sourcePoint" />
            <mxPoint x="-466.8" y="1319.5" as="targetPoint" />
            <mxPoint as="offset" />
          </mxGeometry>
        </mxCell>
        <mxCell id="g0aTvsE6Svlh8jWhcZFR-25" value="De-&lt;span style=&quot;background-color: initial;&quot;&gt;Multiplex&lt;/span&gt;" style="rhombus;whiteSpace=wrap;html=1;fillColor=#fff2cc;strokeColor=#d6b656;" parent="1" vertex="1">
          <mxGeometry x="-137.3" y="1197" width="84" height="80" as="geometry" />
        </mxCell>
        <mxCell id="g0aTvsE6Svlh8jWhcZFR-30" value="" style="rounded=0;whiteSpace=wrap;html=1;fillColor=#647687;strokeColor=#314354;dashed=1;fontColor=#ffffff;" parent="1" vertex="1">
          <mxGeometry x="-346.3" y="1179.5" width="200" height="257.5" as="geometry" />
        </mxCell>
        <mxCell id="g0aTvsE6Svlh8jWhcZFR-32" value="Open / Close&amp;nbsp;&lt;div&gt;gathering&amp;nbsp;&lt;span style=&quot;background-color: initial;&quot;&gt;socket&lt;/span&gt;&lt;/div&gt;" style="edgeStyle=orthogonalEdgeStyle;rounded=0;orthogonalLoop=1;jettySize=auto;html=1;labelPosition=center;verticalLabelPosition=middle;align=center;verticalAlign=top;labelBackgroundColor=none;fontColor=#000000;dashed=1;spacing=-2;" parent="1" source="g0aTvsE6Svlh8jWhcZFR-34" target="g0aTvsE6Svlh8jWhcZFR-40" edge="1">
          <mxGeometry x="0.2857" relative="1" as="geometry">
            <Array as="points">
              <mxPoint x="-116.3" y="1357" />
              <mxPoint x="-116.3" y="1357" />
            </Array>
            <mxPoint x="-153.3" y="1249.5" as="targetPoint" />
            <mxPoint as="offset" />
          </mxGeometry>
        </mxCell>
        <mxCell id="g0aTvsE6Svlh8jWhcZFR-41" style="edgeStyle=orthogonalEdgeStyle;rounded=0;orthogonalLoop=1;jettySize=auto;html=1;dashed=1;" parent="1" source="g0aTvsE6Svlh8jWhcZFR-34" target="g0aTvsE6Svlh8jWhcZFR-20" edge="1">
          <mxGeometry relative="1" as="geometry">
            <Array as="points">
              <mxPoint x="-87.3" y="1347" />
              <mxPoint x="-87.3" y="1287" />
              <mxPoint x="3.700000000000003" y="1287" />
            </Array>
          </mxGeometry>
        </mxCell>
        <mxCell id="g0aTvsE6Svlh8jWhcZFR-34" value="Candidate&lt;div&gt;Gathering&lt;/div&gt;" style="rounded=0;whiteSpace=wrap;html=1;fillColor=#fff2cc;strokeColor=#d6b656;" parent="1" vertex="1">
          <mxGeometry x="-333.3" y="1317" width="120" height="60" as="geometry" />
        </mxCell>
        <mxCell id="g0aTvsE6Svlh8jWhcZFR-35" value="STUN&lt;div&gt;Response&lt;/div&gt;" style="edgeStyle=orthogonalEdgeStyle;rounded=0;orthogonalLoop=1;jettySize=auto;html=1;dashed=1;labelBackgroundColor=none;fontColor=#FFFFFF;verticalAlign=top;spacing=-2;" parent="1" source="g0aTvsE6Svlh8jWhcZFR-25" target="g0aTvsE6Svlh8jWhcZFR-38" edge="1">
          <mxGeometry x="0.2895" relative="1" as="geometry">
            <Array as="points">
              <mxPoint x="-64.3" y="1220" />
            </Array>
            <mxPoint x="-153.3" y="1219.5" as="sourcePoint" />
            <mxPoint as="offset" />
          </mxGeometry>
        </mxCell>
        <mxCell id="g0aTvsE6Svlh8jWhcZFR-36" value="ICE Agent" style="text;html=1;align=center;verticalAlign=middle;resizable=0;points=[];autosize=1;fontColor=#FFFFFF;fontStyle=1" parent="1" vertex="1">
          <mxGeometry x="-346.3" y="1178.5" width="80" height="30" as="geometry" />
        </mxCell>
        <mxCell id="g0aTvsE6Svlh8jWhcZFR-37" value="Send STUN" style="edgeStyle=orthogonalEdgeStyle;rounded=0;orthogonalLoop=1;jettySize=auto;html=1;dashed=1;labelBackgroundColor=none;fontColor=#000000;verticalAlign=top;spacing=-3;" parent="1" source="g0aTvsE6Svlh8jWhcZFR-38" target="g0aTvsE6Svlh8jWhcZFR-20" edge="1">
          <mxGeometry x="0.5663" relative="1" as="geometry">
            <Array as="points">
              <mxPoint x="-273.3" y="1287" />
              <mxPoint x="3.700000000000003" y="1287" />
            </Array>
            <mxPoint x="-153.3" y="1239.5" as="targetPoint" />
            <mxPoint as="offset" />
          </mxGeometry>
        </mxCell>
        <mxCell id="g0aTvsE6Svlh8jWhcZFR-38" value="Path Probing" style="rounded=0;whiteSpace=wrap;html=1;fillColor=#fff2cc;strokeColor=#d6b656;" parent="1" vertex="1">
          <mxGeometry x="-333.3" y="1208.5" width="120" height="60" as="geometry" />
        </mxCell>
        <mxCell id="g0aTvsE6Svlh8jWhcZFR-39" value="Synchronize,&amp;nbsp;&lt;div&gt;ICE Credentials&lt;/div&gt;" style="edgeStyle=orthogonalEdgeStyle;rounded=0;orthogonalLoop=1;jettySize=auto;html=1;labelBackgroundColor=none;verticalAlign=top;fontColor=#FFFFFF;spacing=-1;" parent="1" source="g0aTvsE6Svlh8jWhcZFR-34" target="g0aTvsE6Svlh8jWhcZFR-21" edge="1">
          <mxGeometry x="-0.3162" y="3" relative="1" as="geometry">
            <Array as="points">
              <mxPoint x="-273.3" y="1405" />
            </Array>
            <mxPoint x="-153.3" y="1359.5" as="targetPoint" />
            <mxPoint as="offset" />
          </mxGeometry>
        </mxCell>
        <mxCell id="-rm3QBKlkkAgJn98uPAS-48" value="Include /&amp;nbsp;&lt;div&gt;Remove&lt;div&gt;from polling&lt;/div&gt;&lt;/div&gt;" style="edgeStyle=orthogonalEdgeStyle;rounded=0;orthogonalLoop=1;jettySize=auto;html=1;labelPosition=right;verticalLabelPosition=middle;align=left;verticalAlign=middle;spacingRight=0;labelBackgroundColor=none;spacingLeft=2;" edge="1" parent="1" source="g0aTvsE6Svlh8jWhcZFR-40" target="g0aTvsE6Svlh8jWhcZFR-20">
          <mxGeometry x="-0.134" relative="1" as="geometry">
            <Array as="points">
              <mxPoint x="33.7" y="1297" />
              <mxPoint x="33.7" y="1297" />
            </Array>
            <mxPoint as="offset" />
          </mxGeometry>
        </mxCell>
        <mxCell id="g0aTvsE6Svlh8jWhcZFR-40" value="Socket Handling&lt;div&gt;(&lt;i&gt;add, remove)&lt;/i&gt;&lt;/div&gt;" style="rounded=0;whiteSpace=wrap;html=1;fillColor=#fff2cc;strokeColor=#d6b656;" parent="1" vertex="1">
          <mxGeometry x="-31.299999999999997" y="1317" width="120" height="60" as="geometry" />
        </mxCell>
        <mxCell id="g0aTvsE6Svlh8jWhcZFR-43" value="3" style="ellipse;whiteSpace=wrap;html=1;aspect=fixed;fontSize=12;fontStyle=1;fillColor=#ffe6cc;strokeColor=#d79b00;" parent="1" vertex="1">
          <mxGeometry x="-183.3" y="1204" width="30" height="30" as="geometry" />
        </mxCell>
        <mxCell id="g0aTvsE6Svlh8jWhcZFR-44" style="edgeStyle=orthogonalEdgeStyle;rounded=0;orthogonalLoop=1;jettySize=auto;html=1;dashed=1;textShadow=0;flowAnimation=0;shadow=0;jumpStyle=arc;jumpSize=6;" parent="1" source="g0aTvsE6Svlh8jWhcZFR-25" target="g0aTvsE6Svlh8jWhcZFR-34" edge="1">
          <mxGeometry relative="1" as="geometry">
            <Array as="points">
              <mxPoint x="-156.3" y="1237" />
              <mxPoint x="-156.3" y="1327" />
            </Array>
          </mxGeometry>
        </mxCell>
        <mxCell id="g0aTvsE6Svlh8jWhcZFR-47" value="6" style="ellipse;whiteSpace=wrap;html=1;aspect=fixed;fontSize=12;fontStyle=1;fillColor=#ffe6cc;strokeColor=#d79b00;" parent="1" vertex="1">
          <mxGeometry x="-308.3" y="1392" width="30" height="30" as="geometry" />
        </mxCell>
        <mxCell id="g0aTvsE6Svlh8jWhcZFR-48" value="5" style="ellipse;whiteSpace=wrap;html=1;aspect=fixed;fontSize=12;fontStyle=1;fillColor=#ffe6cc;strokeColor=#d79b00;" parent="1" vertex="1">
          <mxGeometry x="-170.3" y="1361" width="30" height="30" as="geometry" />
        </mxCell>
        <mxCell id="g0aTvsE6Svlh8jWhcZFR-49" value="4" style="ellipse;whiteSpace=wrap;html=1;aspect=fixed;fontSize=12;fontStyle=1;fillColor=#ffe6cc;strokeColor=#d79b00;" parent="1" vertex="1">
          <mxGeometry x="-83.3" y="1302" width="30" height="30" as="geometry" />
        </mxCell>
        <mxCell id="-rm3QBKlkkAgJn98uPAS-74" value="" style="rounded=0;whiteSpace=wrap;html=1;fillColor=#A6C4E0;strokeColor=#314354;dashed=1;verticalAlign=top;" vertex="1" parent="1">
          <mxGeometry x="1320" y="600" width="560" height="250" as="geometry" />
        </mxCell>
        <mxCell id="-rm3QBKlkkAgJn98uPAS-75" value="Quicheperf" style="text;html=1;align=center;verticalAlign=middle;resizable=0;points=[];autosize=1;strokeColor=none;fillColor=none;fontStyle=1" vertex="1" parent="1">
          <mxGeometry x="1800" y="820" width="80" height="30" as="geometry" />
        </mxCell>
        <mxCell id="-rm3QBKlkkAgJn98uPAS-76" value="Packets" style="edgeStyle=orthogonalEdgeStyle;rounded=0;orthogonalLoop=1;jettySize=auto;html=1;startArrow=classic;startFill=1;verticalAlign=bottom;dashed=1;labelPosition=center;verticalLabelPosition=top;align=center;spacingRight=2;labelBackgroundColor=none;" edge="1" parent="1" source="-rm3QBKlkkAgJn98uPAS-77">
          <mxGeometry x="-0.095" relative="1" as="geometry">
            <mxPoint x="1910" y="767" as="targetPoint" />
            <mxPoint x="1740" y="810" as="sourcePoint" />
            <mxPoint as="offset" />
          </mxGeometry>
        </mxCell>
        <mxCell id="-rm3QBKlkkAgJn98uPAS-162" style="edgeStyle=orthogonalEdgeStyle;rounded=0;orthogonalLoop=1;jettySize=auto;html=1;" edge="1" parent="1" source="-rm3QBKlkkAgJn98uPAS-77" target="-rm3QBKlkkAgJn98uPAS-82">
          <mxGeometry relative="1" as="geometry">
            <Array as="points">
              <mxPoint x="1600" y="762" />
            </Array>
          </mxGeometry>
        </mxCell>
        <mxCell id="-rm3QBKlkkAgJn98uPAS-181" value="Send egress&lt;div&gt;QUIC&lt;/div&gt;" style="edgeStyle=orthogonalEdgeStyle;rounded=0;orthogonalLoop=1;jettySize=auto;html=1;verticalAlign=middle;labelBackgroundColor=none;labelPosition=left;verticalLabelPosition=middle;align=right;spacingRight=2;" edge="1" parent="1" source="-rm3QBKlkkAgJn98uPAS-156" target="-rm3QBKlkkAgJn98uPAS-77">
          <mxGeometry x="-0.817" relative="1" as="geometry">
            <Array as="points">
              <mxPoint x="1450" y="773" />
            </Array>
            <mxPoint as="offset" />
          </mxGeometry>
        </mxCell>
        <mxCell id="-rm3QBKlkkAgJn98uPAS-180" value="Remove Path&lt;div&gt;&lt;span style=&quot;background-color: initial;&quot;&gt;(on Network Error)&lt;/span&gt;&lt;/div&gt;" style="edgeStyle=orthogonalEdgeStyle;rounded=0;orthogonalLoop=1;jettySize=auto;html=1;verticalAlign=bottom;labelBackgroundColor=none;spacing=-3;" edge="1" parent="1" source="-rm3QBKlkkAgJn98uPAS-82" target="-rm3QBKlkkAgJn98uPAS-156">
          <mxGeometry x="-0.8379" y="-3" relative="1" as="geometry">
            <mxPoint x="1209.69" y="600.5" as="targetPoint" />
            <Array as="points">
              <mxPoint x="1600" y="663" />
            </Array>
            <mxPoint as="offset" />
          </mxGeometry>
        </mxCell>
        <mxCell id="-rm3QBKlkkAgJn98uPAS-184" style="edgeStyle=orthogonalEdgeStyle;rounded=0;orthogonalLoop=1;jettySize=auto;html=1;" edge="1" parent="1" source="-rm3QBKlkkAgJn98uPAS-82" target="-rm3QBKlkkAgJn98uPAS-155">
          <mxGeometry relative="1" as="geometry">
            <Array as="points">
              <mxPoint x="1600" y="663" />
            </Array>
          </mxGeometry>
        </mxCell>
        <mxCell id="-rm3QBKlkkAgJn98uPAS-82" value="De-&lt;span style=&quot;background-color: initial;&quot;&gt;Multiplex&lt;/span&gt;" style="rhombus;whiteSpace=wrap;html=1;fillColor=#fff2cc;strokeColor=#d6b656;" vertex="1" parent="1">
          <mxGeometry x="1558" y="670" width="84" height="80" as="geometry" />
        </mxCell>
        <mxCell id="-rm3QBKlkkAgJn98uPAS-88" value="" style="rounded=0;whiteSpace=wrap;html=1;fillColor=#E6E6E6;fontColor=#333333;strokeColor=#314354;dashed=1;" vertex="1" parent="1">
          <mxGeometry x="1321.25" y="440" width="278.75" height="160" as="geometry" />
        </mxCell>
        <mxCell id="-rm3QBKlkkAgJn98uPAS-89" value="Path Management" style="rounded=0;whiteSpace=wrap;html=1;fillColor=#fff2cc;strokeColor=#d6b656;" vertex="1" parent="1">
          <mxGeometry x="1474" y="477" width="120" height="60" as="geometry" />
        </mxCell>
        <mxCell id="-rm3QBKlkkAgJn98uPAS-174" value="Send&lt;div&gt;egress&lt;/div&gt;&lt;div&gt;packet(s)&lt;/div&gt;" style="edgeStyle=orthogonalEdgeStyle;rounded=0;orthogonalLoop=1;jettySize=auto;html=1;labelBackgroundColor=none;labelPosition=right;verticalLabelPosition=middle;align=left;verticalAlign=middle;spacingRight=0;spacingLeft=2;" edge="1" parent="1" source="-rm3QBKlkkAgJn98uPAS-90" target="-rm3QBKlkkAgJn98uPAS-156">
          <mxGeometry x="0.002" relative="1" as="geometry">
            <Array as="points">
              <mxPoint x="1340" y="662" />
            </Array>
            <mxPoint as="offset" />
          </mxGeometry>
        </mxCell>
        <mxCell id="-rm3QBKlkkAgJn98uPAS-90" value="Packet Handling" style="rounded=0;whiteSpace=wrap;html=1;fillColor=#fff2cc;strokeColor=#d6b656;" vertex="1" parent="1">
          <mxGeometry x="1328" y="477" width="120" height="60" as="geometry" />
        </mxCell>
        <mxCell id="-rm3QBKlkkAgJn98uPAS-91" value="QUIC" style="text;html=1;align=center;verticalAlign=middle;resizable=0;points=[];autosize=1;strokeColor=none;fillColor=none;fontStyle=1" vertex="1" parent="1">
          <mxGeometry x="1321.25" y="440" width="50" height="30" as="geometry" />
        </mxCell>
        <mxCell id="-rm3QBKlkkAgJn98uPAS-92" value="" style="rounded=0;whiteSpace=wrap;html=1;fillColor=#647687;strokeColor=#314354;dashed=1;fontColor=#ffffff;" vertex="1" parent="1">
          <mxGeometry x="1600" y="440" width="280" height="160" as="geometry" />
        </mxCell>
        <mxCell id="-rm3QBKlkkAgJn98uPAS-172" value="&lt;div&gt;ICE Credentials&lt;/div&gt;" style="edgeStyle=orthogonalEdgeStyle;rounded=0;orthogonalLoop=1;jettySize=auto;html=1;exitX=1;exitY=0.5;exitDx=0;exitDy=0;labelBackgroundColor=none;horizontal=0;verticalAlign=bottom;" edge="1" parent="1" source="-rm3QBKlkkAgJn98uPAS-92" target="-rm3QBKlkkAgJn98uPAS-155">
          <mxGeometry x="-0.2143" relative="1" as="geometry">
            <Array as="points">
              <mxPoint x="1900" y="520" />
              <mxPoint x="1900" y="680" />
            </Array>
            <mxPoint as="offset" />
          </mxGeometry>
        </mxCell>
        <mxCell id="-rm3QBKlkkAgJn98uPAS-158" value="Add&amp;nbsp;&lt;div&gt;path&lt;/div&gt;" style="edgeStyle=orthogonalEdgeStyle;rounded=0;orthogonalLoop=1;jettySize=auto;html=1;labelBackgroundColor=none;labelPosition=right;verticalLabelPosition=middle;align=left;verticalAlign=middle;fontColor=#FFFFFF;spacingLeft=2;" edge="1" parent="1" source="-rm3QBKlkkAgJn98uPAS-93" target="-rm3QBKlkkAgJn98uPAS-155">
          <mxGeometry x="-0.5385" relative="1" as="geometry">
            <Array as="points">
              <mxPoint x="1835" y="650" />
            </Array>
            <mxPoint as="offset" />
          </mxGeometry>
        </mxCell>
        <mxCell id="-rm3QBKlkkAgJn98uPAS-170" value="Open&lt;div&gt;gathering&amp;nbsp;&lt;/div&gt;&lt;div&gt;socket&lt;/div&gt;" style="edgeStyle=orthogonalEdgeStyle;rounded=0;orthogonalLoop=1;jettySize=auto;html=1;labelBackgroundColor=none;labelPosition=right;verticalLabelPosition=middle;align=left;verticalAlign=middle;spacingLeft=2;fontColor=#FFFFFF;" edge="1" parent="1" source="-rm3QBKlkkAgJn98uPAS-93" target="-rm3QBKlkkAgJn98uPAS-155">
          <mxGeometry x="-0.3016" relative="1" as="geometry">
            <Array as="points">
              <mxPoint x="1770" y="590" />
              <mxPoint x="1770" y="590" />
            </Array>
            <mxPoint as="offset" />
          </mxGeometry>
        </mxCell>
        <mxCell id="-rm3QBKlkkAgJn98uPAS-93" value="Candidate&lt;div&gt;Gathering&lt;/div&gt;" style="rounded=0;whiteSpace=wrap;html=1;fillColor=#fff2cc;strokeColor=#d6b656;" vertex="1" parent="1">
          <mxGeometry x="1754" y="477" width="120" height="60" as="geometry" />
        </mxCell>
        <mxCell id="-rm3QBKlkkAgJn98uPAS-95" value="ICE Agent" style="text;html=1;align=center;verticalAlign=middle;resizable=0;points=[];autosize=1;fontColor=#FFFFFF;fontStyle=1" vertex="1" parent="1">
          <mxGeometry x="1800" y="440" width="80" height="30" as="geometry" />
        </mxCell>
        <mxCell id="-rm3QBKlkkAgJn98uPAS-96" value="Path Probing" style="rounded=0;whiteSpace=wrap;html=1;fillColor=#fff2cc;strokeColor=#d6b656;" vertex="1" parent="1">
          <mxGeometry x="1606.5" y="477" width="120" height="60" as="geometry" />
        </mxCell>
        <mxCell id="-rm3QBKlkkAgJn98uPAS-101" value="" style="rounded=0;whiteSpace=wrap;html=1;fillColor=#A6C4E0;strokeColor=#314354;dashed=1;" vertex="1" parent="1">
          <mxGeometry x="2420" y="324" width="219.5" height="238" as="geometry" />
        </mxCell>
        <mxCell id="-rm3QBKlkkAgJn98uPAS-102" value="" style="rounded=0;whiteSpace=wrap;html=1;fillColor=#E6E6E6;fontColor=#333333;strokeColor=#314354;dashed=1;" vertex="1" parent="1">
          <mxGeometry x="2170" y="324" width="250" height="238" as="geometry" />
        </mxCell>
        <mxCell id="-rm3QBKlkkAgJn98uPAS-103" value="Path Management" style="rounded=0;whiteSpace=wrap;html=1;fillColor=#fff2cc;strokeColor=#d6b656;" vertex="1" parent="1">
          <mxGeometry x="2196" y="417" width="120" height="60" as="geometry" />
        </mxCell>
        <mxCell id="-rm3QBKlkkAgJn98uPAS-104" value="Schedule&amp;nbsp;&lt;div&gt;to send&lt;/div&gt;" style="edgeStyle=orthogonalEdgeStyle;rounded=0;orthogonalLoop=1;jettySize=auto;html=1;fontColor=default;labelBackgroundColor=none;verticalAlign=bottom;" edge="1" parent="1" source="-rm3QBKlkkAgJn98uPAS-105" target="-rm3QBKlkkAgJn98uPAS-110">
          <mxGeometry x="0.418" relative="1" as="geometry">
            <Array as="points">
              <mxPoint x="2420" y="364" />
              <mxPoint x="2420" y="364" />
            </Array>
            <mxPoint as="offset" />
          </mxGeometry>
        </mxCell>
        <mxCell id="-rm3QBKlkkAgJn98uPAS-105" value="Packet Handling" style="rounded=0;whiteSpace=wrap;html=1;fillColor=#fff2cc;strokeColor=#d6b656;" vertex="1" parent="1">
          <mxGeometry x="2196" y="354" width="120" height="60" as="geometry" />
        </mxCell>
        <mxCell id="-rm3QBKlkkAgJn98uPAS-106" value="QUIC" style="text;html=1;align=center;verticalAlign=middle;resizable=0;points=[];autosize=1;strokeColor=none;fillColor=none;fontStyle=1" vertex="1" parent="1">
          <mxGeometry x="2189.5" y="324" width="50" height="30" as="geometry" />
        </mxCell>
        <mxCell id="-rm3QBKlkkAgJn98uPAS-107" value="Quicheperf" style="text;html=1;align=center;verticalAlign=middle;resizable=0;points=[];autosize=1;strokeColor=none;fillColor=none;fontStyle=1" vertex="1" parent="1">
          <mxGeometry x="2559.5" y="323" width="80" height="30" as="geometry" />
        </mxCell>
        <mxCell id="-rm3QBKlkkAgJn98uPAS-108" value="Remove Path&lt;div&gt;(&lt;i&gt;on Network Error&lt;/i&gt;)&lt;/div&gt;" style="edgeStyle=orthogonalEdgeStyle;rounded=0;orthogonalLoop=1;jettySize=auto;html=1;labelBackgroundColor=none;labelPosition=center;verticalLabelPosition=top;align=center;verticalAlign=bottom;" edge="1" parent="1" source="-rm3QBKlkkAgJn98uPAS-118" target="-rm3QBKlkkAgJn98uPAS-103">
          <mxGeometry x="0.0526" relative="1" as="geometry">
            <Array as="points">
              <mxPoint x="2370" y="447" />
              <mxPoint x="2370" y="447" />
            </Array>
            <mxPoint as="offset" />
          </mxGeometry>
        </mxCell>
        <mxCell id="-rm3QBKlkkAgJn98uPAS-109" value="Packets" style="edgeStyle=orthogonalEdgeStyle;rounded=0;orthogonalLoop=1;jettySize=auto;html=1;startArrow=classic;startFill=1;verticalAlign=bottom;dashed=1;" edge="1" parent="1" source="-rm3QBKlkkAgJn98uPAS-110">
          <mxGeometry relative="1" as="geometry">
            <mxPoint x="2700.5" y="383" as="targetPoint" />
          </mxGeometry>
        </mxCell>
        <mxCell id="-rm3QBKlkkAgJn98uPAS-110" value="Socket Handling&lt;div&gt;(&lt;i&gt;send, receive,&lt;/i&gt;&lt;/div&gt;&lt;div&gt;&lt;i&gt;add, remove&lt;/i&gt;)&lt;/div&gt;" style="rounded=0;whiteSpace=wrap;html=1;fillColor=#fff2cc;strokeColor=#d6b656;" vertex="1" parent="1">
          <mxGeometry x="2505" y="353" width="120" height="60" as="geometry" />
        </mxCell>
        <mxCell id="-rm3QBKlkkAgJn98uPAS-111" value="QUIC ingress&amp;nbsp;&lt;div&gt;packet(s)&lt;/div&gt;" style="edgeStyle=orthogonalEdgeStyle;rounded=0;orthogonalLoop=1;jettySize=auto;html=1;labelBackgroundColor=none;verticalAlign=bottom;" edge="1" parent="1" source="-rm3QBKlkkAgJn98uPAS-118" target="-rm3QBKlkkAgJn98uPAS-105">
          <mxGeometry x="0.4316" relative="1" as="geometry">
            <Array as="points">
              <mxPoint x="2472" y="400" />
            </Array>
            <mxPoint as="offset" />
          </mxGeometry>
        </mxCell>
        <mxCell id="-rm3QBKlkkAgJn98uPAS-112" value="Add Path (&lt;i&gt;via Quicheperf&lt;/i&gt;)" style="edgeStyle=orthogonalEdgeStyle;rounded=0;orthogonalLoop=1;jettySize=auto;html=1;dashed=1;labelBackgroundColor=none;verticalAlign=bottom;" edge="1" parent="1" source="-rm3QBKlkkAgJn98uPAS-113" target="-rm3QBKlkkAgJn98uPAS-103">
          <mxGeometry x="0.2511" relative="1" as="geometry">
            <Array as="points">
              <mxPoint x="2256" y="504" />
            </Array>
            <mxPoint as="offset" />
          </mxGeometry>
        </mxCell>
        <mxCell id="-rm3QBKlkkAgJn98uPAS-113" value="ICE Agent" style="rounded=0;whiteSpace=wrap;html=1;fillColor=#f5f5f5;strokeColor=#666666;fontColor=#333333;" vertex="1" parent="1">
          <mxGeometry x="2487.25" y="496" width="85" height="34" as="geometry" />
        </mxCell>
        <mxCell id="-rm3QBKlkkAgJn98uPAS-114" value="&lt;div&gt;Synchronization / Credentials / Candidates&lt;/div&gt;&lt;div&gt;&lt;span style=&quot;background-color: initial;&quot;&gt;(&lt;i&gt;via Quicheperf&lt;/i&gt;)&lt;/span&gt;&lt;/div&gt;" style="edgeStyle=orthogonalEdgeStyle;rounded=0;orthogonalLoop=1;jettySize=auto;html=1;labelBackgroundColor=none;verticalAlign=bottom;dashed=1;" edge="1" parent="1" source="-rm3QBKlkkAgJn98uPAS-113" target="-rm3QBKlkkAgJn98uPAS-105">
          <mxGeometry x="-0.0984" relative="1" as="geometry">
            <Array as="points">
              <mxPoint x="2530" y="544" />
              <mxPoint x="2180" y="544" />
              <mxPoint x="2180" y="383" />
            </Array>
            <mxPoint as="offset" />
          </mxGeometry>
        </mxCell>
        <mxCell id="-rm3QBKlkkAgJn98uPAS-115" value="1" style="ellipse;whiteSpace=wrap;html=1;aspect=fixed;fontSize=12;fontStyle=1;fillColor=#ffe6cc;strokeColor=#d79b00;" vertex="1" parent="1">
          <mxGeometry x="2650" y="387" width="30" height="30" as="geometry" />
        </mxCell>
        <mxCell id="-rm3QBKlkkAgJn98uPAS-116" value="2" style="ellipse;whiteSpace=wrap;html=1;aspect=fixed;fontSize=12;fontStyle=1;fillColor=#ffe6cc;strokeColor=#d79b00;" vertex="1" parent="1">
          <mxGeometry x="2525" y="415" width="30" height="30" as="geometry" />
        </mxCell>
        <mxCell id="-rm3QBKlkkAgJn98uPAS-117" value="" style="edgeStyle=orthogonalEdgeStyle;rounded=0;orthogonalLoop=1;jettySize=auto;html=1;labelBackgroundColor=#E6E6E6;" edge="1" parent="1" source="-rm3QBKlkkAgJn98uPAS-110" target="-rm3QBKlkkAgJn98uPAS-118">
          <mxGeometry x="0.0007" relative="1" as="geometry">
            <Array as="points">
              <mxPoint x="2565" y="447" />
            </Array>
            <mxPoint x="2506.5" y="373" as="sourcePoint" />
            <mxPoint x="2069.5" y="464" as="targetPoint" />
            <mxPoint as="offset" />
          </mxGeometry>
        </mxCell>
        <mxCell id="-rm3QBKlkkAgJn98uPAS-118" value="De-&lt;span style=&quot;background-color: initial;&quot;&gt;Multiplex&lt;/span&gt;" style="rhombus;whiteSpace=wrap;html=1;fillColor=#fff2cc;strokeColor=#d6b656;" vertex="1" parent="1">
          <mxGeometry x="2430" y="407" width="84" height="80" as="geometry" />
        </mxCell>
        <mxCell id="-rm3QBKlkkAgJn98uPAS-119" value="3" style="ellipse;whiteSpace=wrap;html=1;aspect=fixed;fontSize=12;fontStyle=1;fillColor=#ffe6cc;strokeColor=#d79b00;" vertex="1" parent="1">
          <mxGeometry x="2475" y="328" width="30" height="30" as="geometry" />
        </mxCell>
        <mxCell id="-rm3QBKlkkAgJn98uPAS-120" value="7" style="ellipse;whiteSpace=wrap;html=1;aspect=fixed;fontSize=12;fontStyle=1;fillColor=#ffe6cc;strokeColor=#d79b00;" vertex="1" parent="1">
          <mxGeometry x="2410" y="511" width="30" height="30" as="geometry" />
        </mxCell>
        <mxCell id="-rm3QBKlkkAgJn98uPAS-121" value="4" style="ellipse;whiteSpace=wrap;html=1;aspect=fixed;fontSize=12;fontStyle=1;fillColor=#ffe6cc;strokeColor=#d79b00;" vertex="1" parent="1">
          <mxGeometry x="2398" y="368" width="30" height="30" as="geometry" />
        </mxCell>
        <mxCell id="-rm3QBKlkkAgJn98uPAS-122" value="5" style="ellipse;whiteSpace=wrap;html=1;aspect=fixed;fontSize=12;fontStyle=1;fillColor=#ffe6cc;strokeColor=#d79b00;" vertex="1" parent="1">
          <mxGeometry x="2413" y="408" width="30" height="30" as="geometry" />
        </mxCell>
        <mxCell id="-rm3QBKlkkAgJn98uPAS-123" value="6" style="ellipse;whiteSpace=wrap;html=1;aspect=fixed;fontSize=12;fontStyle=1;fillColor=#ffe6cc;strokeColor=#d79b00;" vertex="1" parent="1">
          <mxGeometry x="2402" y="468" width="30" height="30" as="geometry" />
        </mxCell>
        <mxCell id="-rm3QBKlkkAgJn98uPAS-124" value="" style="rounded=0;whiteSpace=wrap;html=1;fillColor=#A6C4E0;strokeColor=#314354;dashed=1;" vertex="1" parent="1">
          <mxGeometry x="2373.25" y="614" width="249.5" height="257.5" as="geometry" />
        </mxCell>
        <mxCell id="-rm3QBKlkkAgJn98uPAS-125" value="Quicheperf" style="text;html=1;align=center;verticalAlign=middle;resizable=0;points=[];autosize=1;strokeColor=none;fillColor=none;fontStyle=1" vertex="1" parent="1">
          <mxGeometry x="2542.75" y="613" width="80" height="30" as="geometry" />
        </mxCell>
        <mxCell id="-rm3QBKlkkAgJn98uPAS-126" value="Packets" style="edgeStyle=orthogonalEdgeStyle;rounded=0;orthogonalLoop=1;jettySize=auto;html=1;startArrow=classic;startFill=1;verticalAlign=bottom;dashed=1;" edge="1" parent="1" source="-rm3QBKlkkAgJn98uPAS-127">
          <mxGeometry relative="1" as="geometry">
            <mxPoint x="2683.75" y="673" as="targetPoint" />
          </mxGeometry>
        </mxCell>
        <mxCell id="-rm3QBKlkkAgJn98uPAS-127" value="Socket Handling&lt;div&gt;(&lt;i&gt;send, receive)&lt;/i&gt;&lt;/div&gt;" style="rounded=0;whiteSpace=wrap;html=1;fillColor=#fff2cc;strokeColor=#d6b656;" vertex="1" parent="1">
          <mxGeometry x="2488.25" y="643" width="120" height="60" as="geometry" />
        </mxCell>
        <mxCell id="-rm3QBKlkkAgJn98uPAS-128" value="QUIC" style="rounded=0;whiteSpace=wrap;html=1;fillColor=#f5f5f5;strokeColor=#666666;fontColor=#333333;" vertex="1" parent="1">
          <mxGeometry x="2505.75" y="822.5" width="85" height="34" as="geometry" />
        </mxCell>
        <mxCell id="-rm3QBKlkkAgJn98uPAS-129" value="1" style="ellipse;whiteSpace=wrap;html=1;aspect=fixed;fontSize=12;fontStyle=1;fillColor=#ffe6cc;strokeColor=#d79b00;" vertex="1" parent="1">
          <mxGeometry x="2633.25" y="677" width="30" height="30" as="geometry" />
        </mxCell>
        <mxCell id="-rm3QBKlkkAgJn98uPAS-130" value="2" style="ellipse;whiteSpace=wrap;html=1;aspect=fixed;fontSize=12;fontStyle=1;fillColor=#ffe6cc;strokeColor=#d79b00;" vertex="1" parent="1">
          <mxGeometry x="2454.25" y="631.5" width="30" height="30" as="geometry" />
        </mxCell>
        <mxCell id="-rm3QBKlkkAgJn98uPAS-131" value="" style="edgeStyle=orthogonalEdgeStyle;rounded=0;orthogonalLoop=1;jettySize=auto;html=1;labelBackgroundColor=#E6E6E6;" edge="1" parent="1" source="-rm3QBKlkkAgJn98uPAS-127" target="-rm3QBKlkkAgJn98uPAS-132">
          <mxGeometry x="0.0007" relative="1" as="geometry">
            <Array as="points">
              <mxPoint x="2483.25" y="671.5" />
              <mxPoint x="2483.25" y="671.5" />
            </Array>
            <mxPoint x="2489.75" y="663" as="sourcePoint" />
            <mxPoint x="2052.75" y="754" as="targetPoint" />
            <mxPoint as="offset" />
          </mxGeometry>
        </mxCell>
        <mxCell id="-rm3QBKlkkAgJn98uPAS-132" value="De-&lt;span style=&quot;background-color: initial;&quot;&gt;Multiplex&lt;/span&gt;" style="rhombus;whiteSpace=wrap;html=1;fillColor=#fff2cc;strokeColor=#d6b656;" vertex="1" parent="1">
          <mxGeometry x="2382.25" y="631.5" width="84" height="80" as="geometry" />
        </mxCell>
        <mxCell id="-rm3QBKlkkAgJn98uPAS-133" value="" style="rounded=0;whiteSpace=wrap;html=1;fillColor=#647687;strokeColor=#314354;dashed=1;fontColor=#ffffff;" vertex="1" parent="1">
          <mxGeometry x="2173.25" y="614" width="200" height="257.5" as="geometry" />
        </mxCell>
        <mxCell id="-rm3QBKlkkAgJn98uPAS-134" value="Open&amp;nbsp;&lt;div&gt;gathering&amp;nbsp;&lt;span style=&quot;background-color: initial;&quot;&gt;socket&lt;/span&gt;&lt;/div&gt;" style="edgeStyle=orthogonalEdgeStyle;rounded=0;orthogonalLoop=1;jettySize=auto;html=1;labelPosition=center;verticalLabelPosition=middle;align=center;verticalAlign=top;labelBackgroundColor=none;fontColor=#000000;dashed=1;spacing=-2;" edge="1" parent="1" source="-rm3QBKlkkAgJn98uPAS-136" target="-rm3QBKlkkAgJn98uPAS-143">
          <mxGeometry x="0.2857" relative="1" as="geometry">
            <Array as="points">
              <mxPoint x="2403.25" y="791.5" />
              <mxPoint x="2403.25" y="791.5" />
            </Array>
            <mxPoint x="2366.25" y="684" as="targetPoint" />
            <mxPoint as="offset" />
          </mxGeometry>
        </mxCell>
        <mxCell id="-rm3QBKlkkAgJn98uPAS-135" style="edgeStyle=orthogonalEdgeStyle;rounded=0;orthogonalLoop=1;jettySize=auto;html=1;dashed=1;" edge="1" parent="1" source="-rm3QBKlkkAgJn98uPAS-136" target="-rm3QBKlkkAgJn98uPAS-127">
          <mxGeometry relative="1" as="geometry">
            <Array as="points">
              <mxPoint x="2432.25" y="781.5" />
              <mxPoint x="2432.25" y="721.5" />
              <mxPoint x="2523.25" y="721.5" />
            </Array>
          </mxGeometry>
        </mxCell>
        <mxCell id="-rm3QBKlkkAgJn98uPAS-136" value="Candidate&lt;div&gt;Gathering&lt;/div&gt;" style="rounded=0;whiteSpace=wrap;html=1;fillColor=#fff2cc;strokeColor=#d6b656;" vertex="1" parent="1">
          <mxGeometry x="2186.25" y="751.5" width="120" height="60" as="geometry" />
        </mxCell>
        <mxCell id="-rm3QBKlkkAgJn98uPAS-137" value="STUN&lt;div&gt;Response&lt;/div&gt;" style="edgeStyle=orthogonalEdgeStyle;rounded=0;orthogonalLoop=1;jettySize=auto;html=1;dashed=1;labelBackgroundColor=none;fontColor=#FFFFFF;verticalAlign=top;spacing=-2;" edge="1" parent="1" source="-rm3QBKlkkAgJn98uPAS-132" target="-rm3QBKlkkAgJn98uPAS-140">
          <mxGeometry x="0.2895" relative="1" as="geometry">
            <Array as="points">
              <mxPoint x="2455.25" y="654.5" />
            </Array>
            <mxPoint x="2366.25" y="654" as="sourcePoint" />
            <mxPoint as="offset" />
          </mxGeometry>
        </mxCell>
        <mxCell id="-rm3QBKlkkAgJn98uPAS-138" value="ICE Agent" style="text;html=1;align=center;verticalAlign=middle;resizable=0;points=[];autosize=1;fontColor=#FFFFFF;fontStyle=1" vertex="1" parent="1">
          <mxGeometry x="2173.25" y="613" width="80" height="30" as="geometry" />
        </mxCell>
        <mxCell id="-rm3QBKlkkAgJn98uPAS-139" value="Send STUN" style="edgeStyle=orthogonalEdgeStyle;rounded=0;orthogonalLoop=1;jettySize=auto;html=1;dashed=1;labelBackgroundColor=none;fontColor=#000000;verticalAlign=top;spacing=-3;" edge="1" parent="1" source="-rm3QBKlkkAgJn98uPAS-140" target="-rm3QBKlkkAgJn98uPAS-127">
          <mxGeometry x="0.5663" relative="1" as="geometry">
            <Array as="points">
              <mxPoint x="2246.25" y="721.5" />
              <mxPoint x="2523.25" y="721.5" />
            </Array>
            <mxPoint x="2366.25" y="674" as="targetPoint" />
            <mxPoint as="offset" />
          </mxGeometry>
        </mxCell>
        <mxCell id="-rm3QBKlkkAgJn98uPAS-140" value="Path Probing" style="rounded=0;whiteSpace=wrap;html=1;fillColor=#fff2cc;strokeColor=#d6b656;" vertex="1" parent="1">
          <mxGeometry x="2186.25" y="643" width="120" height="60" as="geometry" />
        </mxCell>
        <mxCell id="-rm3QBKlkkAgJn98uPAS-141" value="Synchronize,&amp;nbsp;&lt;div&gt;ICE Credentials&lt;/div&gt;" style="edgeStyle=orthogonalEdgeStyle;rounded=0;orthogonalLoop=1;jettySize=auto;html=1;labelBackgroundColor=none;verticalAlign=top;fontColor=#FFFFFF;spacing=-1;" edge="1" parent="1" source="-rm3QBKlkkAgJn98uPAS-136" target="-rm3QBKlkkAgJn98uPAS-128">
          <mxGeometry x="-0.3162" y="3" relative="1" as="geometry">
            <Array as="points">
              <mxPoint x="2246.25" y="839.5" />
            </Array>
            <mxPoint x="2366.25" y="794" as="targetPoint" />
            <mxPoint as="offset" />
          </mxGeometry>
        </mxCell>
        <mxCell id="-rm3QBKlkkAgJn98uPAS-142" value="Include /&amp;nbsp;&lt;div&gt;Remove&lt;div&gt;from polling&lt;/div&gt;&lt;/div&gt;" style="edgeStyle=orthogonalEdgeStyle;rounded=0;orthogonalLoop=1;jettySize=auto;html=1;labelPosition=right;verticalLabelPosition=middle;align=left;verticalAlign=middle;spacingRight=0;labelBackgroundColor=none;spacingLeft=2;" edge="1" parent="1" source="-rm3QBKlkkAgJn98uPAS-143" target="-rm3QBKlkkAgJn98uPAS-127">
          <mxGeometry x="-0.134" relative="1" as="geometry">
            <Array as="points">
              <mxPoint x="2553.25" y="731.5" />
              <mxPoint x="2553.25" y="731.5" />
            </Array>
            <mxPoint as="offset" />
          </mxGeometry>
        </mxCell>
        <mxCell id="-rm3QBKlkkAgJn98uPAS-143" value="Socket Handling&lt;div&gt;(&lt;i&gt;add, remove)&lt;/i&gt;&lt;/div&gt;" style="rounded=0;whiteSpace=wrap;html=1;fillColor=#fff2cc;strokeColor=#d6b656;" vertex="1" parent="1">
          <mxGeometry x="2488.25" y="751.5" width="120" height="60" as="geometry" />
        </mxCell>
        <mxCell id="-rm3QBKlkkAgJn98uPAS-144" value="3" style="ellipse;whiteSpace=wrap;html=1;aspect=fixed;fontSize=12;fontStyle=1;fillColor=#ffe6cc;strokeColor=#d79b00;" vertex="1" parent="1">
          <mxGeometry x="2336.25" y="638.5" width="30" height="30" as="geometry" />
        </mxCell>
        <mxCell id="-rm3QBKlkkAgJn98uPAS-145" style="edgeStyle=orthogonalEdgeStyle;rounded=0;orthogonalLoop=1;jettySize=auto;html=1;dashed=1;textShadow=0;flowAnimation=0;shadow=0;jumpStyle=arc;jumpSize=6;" edge="1" parent="1" source="-rm3QBKlkkAgJn98uPAS-132" target="-rm3QBKlkkAgJn98uPAS-136">
          <mxGeometry relative="1" as="geometry">
            <Array as="points">
              <mxPoint x="2363.25" y="671.5" />
              <mxPoint x="2363.25" y="761.5" />
            </Array>
          </mxGeometry>
        </mxCell>
        <mxCell id="-rm3QBKlkkAgJn98uPAS-146" value="6" style="ellipse;whiteSpace=wrap;html=1;aspect=fixed;fontSize=12;fontStyle=1;fillColor=#ffe6cc;strokeColor=#d79b00;" vertex="1" parent="1">
          <mxGeometry x="2211.25" y="826.5" width="30" height="30" as="geometry" />
        </mxCell>
        <mxCell id="-rm3QBKlkkAgJn98uPAS-147" value="5" style="ellipse;whiteSpace=wrap;html=1;aspect=fixed;fontSize=12;fontStyle=1;fillColor=#ffe6cc;strokeColor=#d79b00;" vertex="1" parent="1">
          <mxGeometry x="2349.25" y="795.5" width="30" height="30" as="geometry" />
        </mxCell>
        <mxCell id="-rm3QBKlkkAgJn98uPAS-148" value="4" style="ellipse;whiteSpace=wrap;html=1;aspect=fixed;fontSize=12;fontStyle=1;fillColor=#ffe6cc;strokeColor=#d79b00;" vertex="1" parent="1">
          <mxGeometry x="2436.25" y="736.5" width="30" height="30" as="geometry" />
        </mxCell>
        <mxCell id="-rm3QBKlkkAgJn98uPAS-157" value="Coordination&amp;nbsp;&lt;span style=&quot;background-color: initial;&quot;&gt;Exchange&lt;/span&gt;" style="edgeStyle=orthogonalEdgeStyle;rounded=0;orthogonalLoop=1;jettySize=auto;html=1;startArrow=classic;startFill=1;labelBackgroundColor=none;verticalAlign=bottom;" edge="1" parent="1" source="-rm3QBKlkkAgJn98uPAS-155" target="-rm3QBKlkkAgJn98uPAS-156">
          <mxGeometry x="-0.0011" relative="1" as="geometry">
            <Array as="points">
              <mxPoint x="1690" y="620" />
              <mxPoint x="1510" y="620" />
            </Array>
            <mxPoint as="offset" />
          </mxGeometry>
        </mxCell>
        <mxCell id="-rm3QBKlkkAgJn98uPAS-177" value="&lt;div&gt;&lt;br&gt;&lt;/div&gt;" style="edgeStyle=orthogonalEdgeStyle;rounded=0;orthogonalLoop=1;jettySize=auto;html=1;" edge="1" parent="1" source="-rm3QBKlkkAgJn98uPAS-155" target="-rm3QBKlkkAgJn98uPAS-96">
          <mxGeometry relative="1" as="geometry">
            <Array as="points">
              <mxPoint x="1740" y="507" />
            </Array>
          </mxGeometry>
        </mxCell>
        <mxCell id="-rm3QBKlkkAgJn98uPAS-179" value="Add / Remove socket" style="edgeStyle=orthogonalEdgeStyle;rounded=0;orthogonalLoop=1;jettySize=auto;html=1;jumpStyle=arc;verticalAlign=bottom;labelBackgroundColor=none;" edge="1" parent="1" source="-rm3QBKlkkAgJn98uPAS-155" target="-rm3QBKlkkAgJn98uPAS-161">
          <mxGeometry x="0.5006" relative="1" as="geometry">
            <Array as="points">
              <mxPoint x="1730" y="806" />
            </Array>
            <mxPoint as="offset" />
          </mxGeometry>
        </mxCell>
        <mxCell id="-rm3QBKlkkAgJn98uPAS-182" value="Send egress STUN&lt;div&gt;(filter existing paths)&lt;/div&gt;" style="edgeStyle=orthogonalEdgeStyle;rounded=0;orthogonalLoop=1;jettySize=auto;html=1;labelBackgroundColor=none;labelPosition=right;verticalLabelPosition=middle;align=left;verticalAlign=middle;spacingLeft=2;" edge="1" parent="1" source="-rm3QBKlkkAgJn98uPAS-155" target="-rm3QBKlkkAgJn98uPAS-77">
          <mxGeometry relative="1" as="geometry">
            <Array as="points">
              <mxPoint x="1770" y="710" />
              <mxPoint x="1770" y="710" />
            </Array>
          </mxGeometry>
        </mxCell>
        <mxCell id="-rm3QBKlkkAgJn98uPAS-155" value="ICE Handler" style="rounded=0;whiteSpace=wrap;html=1;fillColor=#fff2cc;strokeColor=#d6b656;" vertex="1" parent="1">
          <mxGeometry x="1680" y="631.5" width="120" height="60" as="geometry" />
        </mxCell>
        <mxCell id="-rm3QBKlkkAgJn98uPAS-171" value="Add /&amp;nbsp;&lt;div&gt;Remove&lt;div&gt;Path&lt;/div&gt;&lt;/div&gt;" style="edgeStyle=orthogonalEdgeStyle;rounded=0;orthogonalLoop=1;jettySize=auto;html=1;labelBackgroundColor=none;labelPosition=right;verticalLabelPosition=middle;align=left;verticalAlign=middle;spacingLeft=2;" edge="1" parent="1" source="-rm3QBKlkkAgJn98uPAS-156" target="-rm3QBKlkkAgJn98uPAS-89">
          <mxGeometry x="0.5093" relative="1" as="geometry">
            <Array as="points">
              <mxPoint x="1500" y="590" />
              <mxPoint x="1540" y="590" />
            </Array>
            <mxPoint as="offset" />
          </mxGeometry>
        </mxCell>
        <mxCell id="-rm3QBKlkkAgJn98uPAS-173" value="Craft&lt;div&gt;Synchronize /&lt;/div&gt;&lt;div&gt;ICE Credentials&lt;/div&gt;" style="edgeStyle=orthogonalEdgeStyle;rounded=0;orthogonalLoop=1;jettySize=auto;html=1;labelBackgroundColor=none;labelPosition=left;verticalLabelPosition=middle;align=right;verticalAlign=middle;spacingRight=2;" edge="1" parent="1" source="-rm3QBKlkkAgJn98uPAS-156" target="-rm3QBKlkkAgJn98uPAS-90">
          <mxGeometry x="0.3016" relative="1" as="geometry">
            <Array as="points">
              <mxPoint x="1430" y="580" />
              <mxPoint x="1430" y="580" />
            </Array>
            <mxPoint as="offset" />
          </mxGeometry>
        </mxCell>
        <mxCell id="-rm3QBKlkkAgJn98uPAS-178" value="QUIC ingress&lt;div&gt;packet(s)&lt;/div&gt;" style="edgeStyle=orthogonalEdgeStyle;rounded=0;orthogonalLoop=1;jettySize=auto;html=1;labelBackgroundColor=none;labelPosition=right;verticalLabelPosition=middle;align=left;verticalAlign=middle;spacingRight=2;spacingLeft=2;" edge="1" parent="1" source="-rm3QBKlkkAgJn98uPAS-156" target="-rm3QBKlkkAgJn98uPAS-90">
          <mxGeometry x="0.0017" relative="1" as="geometry">
            <Array as="points">
              <mxPoint x="1461" y="507" />
            </Array>
            <mxPoint as="offset" />
          </mxGeometry>
        </mxCell>
        <mxCell id="-rm3QBKlkkAgJn98uPAS-156" value="QUIC Handler" style="rounded=0;whiteSpace=wrap;html=1;fillColor=#fff2cc;strokeColor=#d6b656;" vertex="1" parent="1">
          <mxGeometry x="1400.63" y="631.5" width="120" height="60" as="geometry" />
        </mxCell>
        <mxCell id="-rm3QBKlkkAgJn98uPAS-166" value="Include / Exclude&amp;nbsp;&lt;span style=&quot;background-color: initial;&quot;&gt;from polling&lt;/span&gt;" style="edgeStyle=orthogonalEdgeStyle;rounded=0;orthogonalLoop=1;jettySize=auto;html=1;labelBackgroundColor=none;verticalAlign=bottom;" edge="1" parent="1" source="-rm3QBKlkkAgJn98uPAS-161" target="-rm3QBKlkkAgJn98uPAS-77">
          <mxGeometry x="0.0016" relative="1" as="geometry">
            <Array as="points">
              <mxPoint x="1770" y="832" />
            </Array>
            <mxPoint as="offset" />
          </mxGeometry>
        </mxCell>
        <mxCell id="-rm3QBKlkkAgJn98uPAS-161" value="Socket Handling&lt;div&gt;(add, remove&lt;i&gt;)&lt;/i&gt;&lt;/div&gt;" style="rounded=0;whiteSpace=wrap;html=1;fillColor=#fff2cc;strokeColor=#d6b656;" vertex="1" parent="1">
          <mxGeometry x="1400.63" y="780" width="120" height="60" as="geometry" />
        </mxCell>
        <mxCell id="-rm3QBKlkkAgJn98uPAS-167" value="QUIC" style="edgeStyle=orthogonalEdgeStyle;rounded=0;orthogonalLoop=1;jettySize=auto;html=1;labelBackgroundColor=none;verticalAlign=top;spacing=-3;" edge="1" parent="1" source="-rm3QBKlkkAgJn98uPAS-82" target="-rm3QBKlkkAgJn98uPAS-156">
          <mxGeometry x="0.1471" relative="1" as="geometry">
            <Array as="points">
              <mxPoint x="1490" y="710" />
            </Array>
            <mxPoint as="offset" />
          </mxGeometry>
        </mxCell>
        <mxCell id="-rm3QBKlkkAgJn98uPAS-150" value="STUN" style="edgeStyle=orthogonalEdgeStyle;rounded=0;orthogonalLoop=1;jettySize=auto;html=1;labelBackgroundColor=none;verticalAlign=top;spacing=-3;" edge="1" parent="1" source="-rm3QBKlkkAgJn98uPAS-82" target="-rm3QBKlkkAgJn98uPAS-155">
          <mxGeometry x="0.1367" relative="1" as="geometry">
            <Array as="points">
              <mxPoint x="1700" y="710" />
            </Array>
            <mxPoint as="offset" />
          </mxGeometry>
        </mxCell>
        <mxCell id="-rm3QBKlkkAgJn98uPAS-77" value="Socket Handling&lt;div&gt;(&lt;i&gt;send, receive)&lt;/i&gt;&lt;/div&gt;" style="rounded=0;whiteSpace=wrap;html=1;fillColor=#fff2cc;strokeColor=#d6b656;" vertex="1" parent="1">
          <mxGeometry x="1680" y="736.5" width="120" height="60" as="geometry" />
        </mxCell>
        <mxCell id="-rm3QBKlkkAgJn98uPAS-176" value="STUN&lt;div&gt;ingress&lt;/div&gt;&lt;div&gt;packet(s)&lt;/div&gt;" style="edgeStyle=orthogonalEdgeStyle;rounded=0;orthogonalLoop=1;jettySize=auto;html=1;labelBackgroundColor=none;labelPosition=left;verticalLabelPosition=middle;align=right;verticalAlign=middle;spacingRight=2;fontColor=#FFFFFF;" edge="1" parent="1" source="-rm3QBKlkkAgJn98uPAS-155" target="-rm3QBKlkkAgJn98uPAS-93">
          <mxGeometry x="-0.1119" relative="1" as="geometry">
            <Array as="points">
              <mxPoint x="1740" y="507" />
            </Array>
            <mxPoint as="offset" />
          </mxGeometry>
        </mxCell>
      </root>
    </mxGraphModel>
  </diagram>
</mxfile>
